<?xml version="1.0" encoding="utf-8"?>
<!-- Generator: Adobe Illustrator 18.0.0, SVG Export Plug-In . SVG Version: 6.00 Build 0)  -->
<!DOCTYPE svg PUBLIC "-//W3C//DTD SVG 1.1//EN" "http://www.w3.org/Graphics/SVG/1.1/DTD/svg11.dtd">
<svg version="1.1" id="Layer_1" xmlns="http://www.w3.org/2000/svg" xmlns:xlink="http://www.w3.org/1999/xlink" x="0px" y="0px"
	 viewBox="290 380 32 32" enable-background="new 290 380 32 32" xml:space="preserve">
<g>
	<circle fill="none" stroke="#EF4462" stroke-miterlimit="10" cx="306" cy="396" r="15"/>
	<line fill="none" stroke="#EF4462" stroke-miterlimit="10" x1="306.7" y1="385.9" x2="306.7" y2="405.1"/>
	<g>
		<path fill="#EF4462" d="M302.8,398.4c0.1,0.7,0.2,1.2,0.4,1.7c0.2,0.4,0.5,0.8,0.9,1.1c0.4,0.3,0.8,0.5,1.2,0.6
			c0.5,0.1,1,0.2,1.5,0.2c0.6,0,1.2-0.1,1.6-0.2c0.4-0.2,0.8-0.4,1.1-0.7c0.3-0.2,0.5-0.6,0.6-1s0.2-0.7,0.2-1.2
			c0-0.6-0.1-1.1-0.4-1.4c-0.2-0.4-0.6-0.6-1-0.9c-0.4-0.2-0.9-0.4-1.4-0.6s-1.1-0.2-1.6-0.4c-0.6-0.1-1.1-0.3-1.6-0.4
			c-0.5-0.2-1-0.4-1.4-0.7c-0.4-0.3-0.7-0.7-1-1.2s-0.4-1.1-0.4-1.8c0-0.5,0.1-1,0.3-1.5c0.2-0.5,0.5-0.9,0.9-1.2
			c0.4-0.4,0.9-0.7,1.5-0.9c0.6-0.2,1.3-0.3,2.1-0.3c0.8,0,1.5,0.1,2.1,0.4s1.1,0.6,1.5,0.9s0.7,0.9,0.9,1.4
			c0.2,0.6,0.3,1.1,0.3,1.7H310c0-0.6-0.1-1.1-0.3-1.4c-0.2-0.4-0.4-0.7-0.8-1c-0.3-0.2-0.7-0.4-1.1-0.6c-0.4-0.1-0.9-0.2-1.3-0.2
			c-0.7,0-1.2,0.1-1.7,0.3c-0.5,0.2-0.9,0.4-1.1,0.7c-0.2,0.3-0.5,0.7-0.6,1.1c-0.1,0.4-0.1,0.7-0.1,1.1c0.1,0.5,0.2,0.9,0.6,1.1
			c0.3,0.3,0.6,0.5,1.1,0.7c0.4,0.2,0.9,0.3,1.4,0.4c0.5,0.1,1,0.2,1.6,0.4c0.5,0.1,1.1,0.3,1.6,0.4c0.5,0.2,0.9,0.4,1.3,0.7
			c0.4,0.3,0.7,0.7,0.9,1.2s0.4,1.1,0.4,1.7c0,1.4-0.4,2.4-1.4,3.2c-0.9,0.7-2.2,1.1-3.9,1.1c-0.7,0-1.4-0.1-2.1-0.3
			c-0.6-0.2-1.2-0.5-1.6-0.9c-0.4-0.4-0.8-0.9-1.1-1.5s-0.4-1.3-0.4-2.1L302.8,398.4L302.8,398.4z"/>
	</g>
</g>
</svg>
