<?xml version="1.0" encoding="utf-8"?>
<!-- Generator: Adobe Illustrator 18.1.0, SVG Export Plug-In . SVG Version: 6.00 Build 0)  -->
<!DOCTYPE svg PUBLIC "-//W3C//DTD SVG 1.1//EN" "http://www.w3.org/Graphics/SVG/1.1/DTD/svg11.dtd">
<svg version="1.1" xmlns="http://www.w3.org/2000/svg" xmlns:xlink="http://www.w3.org/1999/xlink" x="0px" y="0px"
	 viewBox="0 0 750 1334" enable-background="new 0 0 750 1334" xml:space="preserve">
<g id="bg">
	<path fill="#A0CFEF" d="M413.3,1265.2v-103.4c0-19.1-15.7-34.8-34.8-34.8H197.4c-7.5,0-13.6-6.1-13.6-13.6V971.1
		c0-19.1-15.7-34.8-34.8-34.8H79.1c-19.1,0-34.8,15.7-34.8,34.8v177.1v117.1c0,19.1,15.7,34.8,34.8,34.8h83.5h215.9
		C397.7,1300,413.3,1284.4,413.3,1265.2z"/>
	<path fill="#58B18D" d="M582.8,297.4V162.5c0-6.6,5.4-12,12-12h104.9c6.6,0,12,5.4,12,12v134.9c0,6.6-5.4,12-12,12H594.8
		C588.2,309.4,582.8,304,582.8,297.4z"/>
	<path fill="#F17B9C" d="M160.8,300.1V60.4c0-0.1,0-0.1,0-0.2c-0.1-7-9-10-13.5-4.6L46,179.2c-1.1,1.4-1.7,3.1-1.7,4.8v116
		c0,15.8,13,28.8,28.8,28.8h59C147.9,328.8,160.8,315.9,160.8,300.1z"/>
	<g>
		<path fill="#EFC759" d="M44.3,700V362c0-6.6,5.4-12,12-12h46.6c6.6,0,12,5.4,12,12v338c0,6.6-5.4,12-12,12H56.3
			C49.7,712,44.3,706.6,44.3,700z"/>
	</g>
	<path fill="#CBD6B4" d="M187.3,297.4v-69.6c0-6.6,5.4-12,12-12h355.6c6.6,0,12,5.4,12,12v69.6c0,6.6-5.4,12-12,12H199.3
		C192.7,309.4,187.3,304,187.3,297.4z"/>
	<path fill="#B5C892" d="M187.3,828.9v-69.6c0-6.6,5.4-12,12-12h355.6c6.6,0,12,5.4,12,12v69.6c0,6.6-5.4,12-12,12H199.3
		C192.7,840.9,187.3,835.5,187.3,828.9z"/>
	<path fill="#957C98" d="M114.9,823.6v-55.5c0-6.6,5.4-12,12-12h21.9c6.6,0,12,5.4,12,12v55.5c0,6.6-5.4,12-12,12h-21.9
		C120.3,835.6,114.9,830.2,114.9,823.6z"/>
	<path fill="#EFC759" d="M44.3,901.2v-74.9c0-6.6,5.4-12,12-12h34.3c6.6,0,12,5.4,12,12v74.9c0,6.6-5.4,12-12,12H56.3
		C49.7,913.2,44.3,907.8,44.3,901.2z"/>
	<path fill="#9EB1CC" d="M711.7,1269.9v-353V894c0-16.6-13.6-30.1-30.1-30.1H604H233.3c-16.6,0-30.1,13.6-30.1,30.1v13.9
		c0,16.6,13.6,30.1,30.1,30.1h340.6c4.9,0,8.9,4,8.9,8.9v322.9c0,16.6,13.6,30.1,30.1,30.1h68.6
		C698.2,1300,711.7,1286.5,711.7,1269.9z"/>
	<g>
		<path fill="#224C87" d="M505.1,1288v-149c0-6.6,5.4-12,12-12h37.8c6.6,0,12,5.4,12,12v149c0,6.6-5.4,12-12,12h-37.8
			C510.5,1300,505.1,1294.6,505.1,1288z"/>
	</g>
	<path fill="#B8ABD3" d="M431,1288v-149c0-6.6,5.4-12,12-12h37.8c6.6,0,12,5.4,12,12v149c0,6.6-5.4,12-12,12H443
		C436.4,1300,431,1294.6,431,1288z"/>
	<path fill="#FFFFFF" d="M306.3,1267v-109.3c0-6.6,5.4-12,12-12h54.7c6.6,0,12,5.4,12,12V1267c0,6.6-5.4,12-12,12h-54.7
		C311.7,1279,306.3,1273.6,306.3,1267z"/>
	<path fill="#FFFFFF" d="M171.4,1263v-82.6c0-6.6,5.4-12,12-12h97.7c6.6,0,12,5.4,12,12v82.6c0,6.6-5.4,12-12,12h-97.7
		C176.8,1275,171.4,1269.6,171.4,1263z"/>
	<path fill="#FFFFFF" d="M60,1047.5v-76.3c0-6.6,5.4-12,12-12h76.8c6.6,0,12,5.4,12,12v76.3c0,6.6-5.4,12-12,12H72
		C65.4,1059.5,60,1054.1,60,1047.5z"/>
	<path fill="#FFFFFF" d="M160.8,1094v92.7c0,6.6-5.4,12-12,12H72c-6.6,0-12-5.4-12-12V1094c0-6.6,5.4-12,12-12h76.8
		C155.4,1082,160.8,1087.4,160.8,1094z"/>
	<path fill="#F3A368" d="M711.7,822.1V708.5c0-12.3-10.9-22.3-24.2-22.3h-19.2c-11.7,0-21.1-10-21.1-22.3v-67.1
		c0-12.3-10.9-22.3-24.2-22.3H607c-13.3,0-24.2,10.1-24.2,22.3v111.7v113.6c0,12.3,10.9,22.3,24.2,22.3h16.1h64.5
		C700.9,844.5,711.7,834.4,711.7,822.1z"/>
	<path fill="#C1B49A" d="M187.3,720.9v-10.7c0-3.9,3.1-7,7-7h318.9c3.8,0,7,3.1,7,7v10.7c0,3.8-3.2,7-7,7H194.3
		C190.4,727.9,187.3,724.8,187.3,720.9z"/>
	<path fill="#C1B49A" d="M187.3,675v-10.7c0-3.8,3.1-7,7-7h365.6c3.8,0,7,3.2,7,7V675c0,3.9-3.2,7-7,7H194.3
		C190.4,682,187.3,678.9,187.3,675z"/>
	<path fill="#C1B49A" d="M187.3,629.1v-10.7c0-3.9,3.1-7,7-7h318.9c3.8,0,7,3.1,7,7v10.7c0,3.8-3.2,7-7,7H194.3
		C190.4,636.1,187.3,632.9,187.3,629.1z"/>
	<path fill="#C1B49A" d="M187.3,583.2v-10.7c0-3.8,3.1-7,7-7h365.6c3.8,0,7,3.2,7,7v10.7c0,3.9-3.2,7-7,7H194.3
		C190.4,590.2,187.3,587,187.3,583.2z"/>
	<path fill="#C1B49A" d="M187.3,537.3v-10.7c0-3.9,3.1-7,7-7h318.9c3.8,0,7,3.1,7,7v10.7c0,3.8-3.2,7-7,7H194.3
		C190.4,544.3,187.3,541.1,187.3,537.3z"/>
	<path fill="#C1B49A" d="M187.3,491.4v-10.7c0-3.9,3.1-7,7-7h365.6c3.8,0,7,3.1,7,7v10.7c0,3.8-3.2,7-7,7H194.3
		C190.4,498.4,187.3,495.2,187.3,491.4z"/>
	<path fill="#C1B49A" d="M187.3,445.5v-10.7c0-3.9,3.1-7,7-7h318.9c3.8,0,7,3.1,7,7v10.7c0,3.8-3.2,7-7,7H194.3
		C190.4,452.5,187.3,449.3,187.3,445.5z"/>
	<path fill="#C1B49A" d="M187.3,399.5v-10.7c0-3.9,3.1-7,7-7h365.6c3.8,0,7,3.1,7,7v10.7c0,3.8-3.2,7-7,7H194.3
		C190.4,406.5,187.3,403.4,187.3,399.5z"/>
	<path fill="#C1B49A" d="M187.3,353.6v-10.7c0-3.9,3.1-7,7-7h318.9c3.8,0,7,3.1,7,7v10.7c0,3.8-3.2,7-7,7H194.3
		C190.4,360.6,187.3,357.5,187.3,353.6z"/>
	<path fill="#F68F22" d="M203.2,1086.7V971.2c0-6.6,5.4-12,12-12h339.8c6.6,0,12,5.4,12,12v115.5c0,6.6-5.4,12-12,12H215.2
		C208.6,1098.7,203.2,1093.3,203.2,1086.7z"/>
	<path fill="#F58726" d="M690.5,328.8H604c-11.7,0-21.2,9.5-21.2,21.2V539c0,11.7,9.5,21.2,21.2,21.2h42.8c5.6,0.9,12,3.9,12,13.5
		v65.9c0,11.7,9.5,21.2,21.2,21.2h10.6c11.7,0,21.2-9.5,21.2-21.2V539V358.9V350C711.7,338.4,702.2,328.8,690.5,328.8z"/>
	<path fill="#97CEEF" d="M545.8,150.5H354.8c-16.9,0-17.5-14.3-17.5-15.7V117c0-11.7-9.5-21.2-21.2-21.2H208.5
		c-11.7,0-21.2,9.5-21.2,21.2v54.7v1.8c0,11.7,9.5,21.2,21.2,21.2h107.7h229.6c11.7,0,21.2-9.5,21.2-21.2v-1.8
		C566.9,160,557.4,150.5,545.8,150.5z"/>
	<path fill="#F4D657" d="M597.4,44.2c-0.1-0.1-0.2-0.2-0.2-0.3c-1.4-2.2-3.2-4.2-5.3-5.7l-0.1-0.1l0,0c-3.5-2.6-7.9-4.2-12.5-4.2
		h-33.6H374.9H210.7c-12.9,0-23.4,10.5-23.4,23.4v0c0,12.9,10.5,23.4,23.4,23.4h129.1c3.1,0.1,13.3,1.5,13.9,15v8.4
		c0,12.9,10.5,23.4,23.4,23.4h184.5h17.7h89.5c1.9,0,2.9-2.3,1.6-3.7L597.4,44.2z"/>
</g>
<g id="text1">
	<g>
		<path fill="#FFFFFF" d="M144.2,1217h-5.5v2.4h5.5v3.9h-15.1v-3.9h6.2v-2.4h-6.2v-3.9h15.1V1217z"/>
		<path fill="#FFFFFF" d="M144.2,1234.1H141v-5h-2.6v4.7h-3.1v-4.7h-3v5.2h-3.2v-9.1h15.1V1234.1z"/>
		<path fill="#FFFFFF" d="M144.2,1243.2l-15.1,3.7v-4.2l2.6-0.4v-3.1l-2.6-0.4v-4.1l15.1,3.6V1243.2z M141.1,1240.7l-6.4-1.1v2.2
			L141.1,1240.7L141.1,1240.7z"/>
		<path fill="#FFFFFF" d="M144.2,1251.5h-11.9v4.8h-3.2v-8.8h15.1V1251.5z"/>
		<path fill="#FFFFFF" d="M140.9,1254.8h3.3v9.8h-3.3v-3h-11.8v-3.9h11.8V1254.8z"/>
		<path fill="#FFFFFF" d="M144.2,1269.4h-5.5v2.4h5.5v3.9h-15.1v-3.9h6.2v-2.4h-6.2v-3.9h15.1V1269.4z"/>
		<path fill="#FFFFFF" d="M118.8,1234.6l-15.1,3.7v-4.2l2.6-0.4v-3.1l-2.6-0.4v-4.1l15.1,3.6V1234.6z M115.8,1232.1l-6.4-1.1v2.2
			L115.8,1232.1L115.8,1232.1z"/>
		<path fill="#FFFFFF" d="M118.8,1243.3l-9.3,2.5v0h9.3v3.7h-15.1v-4.3l9.3-2.6v0h-9.3v-3.7h15.1V1243.3z"/>
		<path fill="#FFFFFF" d="M118.8,1257.1c0,1.1-0.2,2-0.6,2.7c-0.4,0.6-1,1.1-1.7,1.4c-0.7,0.3-1.5,0.5-2.4,0.6s-1.9,0.1-2.8,0.1
			s-1.9,0-2.8-0.1c-0.9-0.1-1.7-0.3-2.4-0.6c-0.7-0.3-1.3-0.8-1.7-1.4c-0.4-0.6-0.6-1.5-0.6-2.7v-5.7h15.1V1257.1z M106.6,1256.1
			c0,0.4,0.1,0.7,0.2,0.9c0.1,0.2,0.3,0.4,0.7,0.5s0.8,0.2,1.4,0.2c0.6,0,1.4,0.1,2.5,0.1c1,0,1.8,0,2.5-0.1s1.1-0.1,1.4-0.2
			s0.6-0.3,0.7-0.5c0.1-0.2,0.2-0.5,0.2-0.9v-0.8h-9.4V1256.1z"/>
		<path fill="#FFFFFF" d="M93.5,1220.8c0,1.4-0.3,2.4-1,3.1c-0.7,0.7-1.6,1-2.7,1c-0.4,0-0.8,0-1.2-0.1s-0.7-0.2-1-0.4
			c-0.3-0.2-0.6-0.4-0.8-0.7c-0.2-0.3-0.4-0.7-0.4-1.1h0c0,0.5-0.2,0.9-0.4,1.3c-0.2,0.4-0.5,0.6-0.8,0.9s-0.7,0.4-1.1,0.5
			c-0.4,0.1-0.8,0.2-1.2,0.2c-0.6,0-1.2-0.1-1.8-0.3c-0.5-0.2-1-0.4-1.4-0.8c-0.4-0.4-0.7-0.8-0.9-1.4c-0.2-0.6-0.3-1.3-0.3-2.1
			v-5.9h15.1V1220.8z M81.2,1219.9c0,0.4,0.2,0.7,0.5,1s0.8,0.4,1.4,0.4c0.6,0,1-0.1,1.4-0.4s0.5-0.6,0.5-1v-1.1h-3.7V1219.9z
			 M87.6,1219.7c0,0.4,0.2,0.7,0.5,0.9c0.3,0.2,0.7,0.3,1.1,0.3c0.4,0,0.8-0.1,1.1-0.3c0.3-0.2,0.5-0.5,0.5-0.9v-1h-3.1V1219.7z"/>
		<path fill="#FFFFFF" d="M93.5,1235.8h-3.2v-5h-2.6v4.7h-3.1v-4.7h-3v5.2h-3.2v-9.1h15.1V1235.8z"/>
		<path fill="#FFFFFF" d="M93.5,1244.8l-15.1,3.7v-4.2l2.6-0.4v-3.1l-2.6-0.4v-4.1l15.1,3.6V1244.8z M90.4,1242.4l-6.4-1.1v2.2
			L90.4,1242.4L90.4,1242.4z"/>
		<path fill="#FFFFFF" d="M82.6,1252.7c-0.7,0-1.2,0.1-1.5,0.3c-0.2,0.2-0.4,0.5-0.4,0.9c0,0.4,0.1,0.7,0.4,0.9
			c0.2,0.2,0.7,0.3,1.5,0.3h10.9v3.9h-9.9c-1.1,0-1.9-0.1-2.6-0.3c-0.7-0.2-1.3-0.6-1.7-1s-0.7-1-0.9-1.6c-0.2-0.6-0.2-1.4-0.2-2.2
			c0-0.8,0.1-1.5,0.2-2.2s0.4-1.2,0.9-1.6c0.4-0.4,1-0.8,1.7-1c0.7-0.2,1.6-0.3,2.6-0.3h9.9v3.9H82.6z"/>
		<path fill="#FFFFFF" d="M90.1,1259.8h3.3v9.8h-3.3v-3H78.4v-3.9h11.8V1259.8z"/>
		<path fill="#FFFFFF" d="M93.5,1269.3v4.2l-5.3,1.5v0l5.3,1.5v4.3l-9.2-3.8h-5.9v-3.9h5.9L93.5,1269.3z"/>
	</g>
	<g>
		<path fill="#FFFFFF" d="M657.4,416l-11.2,2v0.1l11.2,2v7h-18.9v-4.6h14.1v-0.1l-14.1-2.6v-3.5l14.1-2.6v-0.1h-14.1V409h18.9V416z"
			/>
		<path fill="#FFFFFF" d="M657.4,440.4h-4v-6.3h-3.2v5.9h-3.9v-5.9h-3.8v6.5h-4v-11.4h18.9V440.4z"/>
		<path fill="#FFFFFF" d="M657.4,451.7l-18.9,4.6v-5.2l3.3-0.5v-3.9l-3.3-0.5V441l18.9,4.5V451.7z M653.5,448.6l-8-1.3v2.7
			L653.5,448.6L653.5,448.6z"/>
		<path fill="#FFFFFF" d="M653.2,454.5h4.2v12.3h-4.2v-3.7h-14.7v-4.9h14.7V454.5z"/>
	</g>
	<g>
		<path fill="#FFFFFF" d="M652.4,190.7c0.6,0,1-0.1,1.4-0.3c0.4-0.2,0.6-0.6,0.6-1.1c0-0.5-0.2-0.9-0.5-1.2s-0.7-0.4-1.1-0.4
			c-0.6,0-1.1,0.2-1.5,0.6c-0.4,0.4-0.7,0.9-0.9,1.5c-0.3,0.6-0.5,1.2-0.8,1.9c-0.3,0.7-0.6,1.3-1.1,1.9c-0.4,0.6-1,1.1-1.7,1.5
			s-1.6,0.6-2.8,0.6c-2,0-3.5-0.6-4.4-1.7c-0.9-1.1-1.4-2.8-1.4-5c0-1,0.1-1.9,0.3-2.7c0.2-0.8,0.5-1.4,0.9-2c0.4-0.5,1-0.9,1.6-1.2
			c0.7-0.3,1.5-0.4,2.5-0.4h0.7v4.8h-0.4c-0.8,0-1.4,0.1-1.7,0.4c-0.3,0.3-0.5,0.7-0.5,1.2c0,0.5,0.2,0.9,0.5,1.2
			c0.4,0.3,0.8,0.4,1.3,0.4c0.6,0,1.1-0.2,1.5-0.6s0.7-0.9,0.9-1.4c0.3-0.6,0.5-1.2,0.8-1.9s0.6-1.3,1-1.9s1-1,1.7-1.4
			c0.7-0.4,1.6-0.6,2.7-0.6c1.9,0,3.4,0.5,4.4,1.5c1,1,1.5,2.6,1.5,4.7c0,2.1-0.5,3.7-1.4,4.7c-0.9,1-2.4,1.4-4.4,1.4v-4.6H652.4z"
			/>
		<path fill="#FFFFFF" d="M657.4,208.7h-4v-6.3h-3.2v5.9h-3.9v-5.9h-3.8v6.5h-4v-11.4h18.9V208.7z"/>
		<path fill="#FFFFFF" d="M657.4,220l-18.9,4.6v-5.2l3.3-0.5V215l-3.3-0.5v-5.2l18.9,4.5V220z M653.5,216.9l-8-1.3v2.7L653.5,216.9
			L653.5,216.9z"/>
		<path fill="#FFFFFF" d="M657.4,236.6h-4v-6.3h-3.2v5.9h-3.9v-5.9h-7.8v-4.9h18.9V236.6z"/>
		<path fill="#FFFFFF" d="M652.5,237.9c1.2,0.2,2.3,0.6,3,1.1c0.8,0.5,1.4,1.2,1.7,2.1c0.4,0.9,0.5,1.9,0.5,3.2s-0.2,2.3-0.5,3.2
			s-0.9,1.6-1.7,2.1c-0.8,0.5-1.8,0.9-3,1.1c-1.2,0.2-2.7,0.3-4.5,0.3c-1.8,0-3.3-0.1-4.5-0.3c-1.2-0.2-2.3-0.6-3-1.1
			c-0.8-0.5-1.3-1.2-1.7-2.1c-0.3-0.9-0.5-1.9-0.5-3.2s0.2-2.3,0.5-3.2c0.3-0.9,0.9-1.6,1.7-2.1c0.8-0.5,1.8-0.9,3-1.1
			c1.2-0.2,2.7-0.3,4.5-0.3C649.7,237.6,651.2,237.7,652.5,237.9z M644.8,242.7c-0.8,0-1.5,0.1-2,0.2s-0.8,0.3-1,0.5
			c-0.2,0.2-0.3,0.5-0.3,0.9s0.1,0.7,0.3,0.9c0.2,0.2,0.5,0.4,1,0.5c0.5,0.1,1.2,0.2,2,0.2c0.8,0,1.9,0.1,3.2,0.1
			c1.3,0,2.3,0,3.2-0.1c0.8,0,1.5-0.1,2-0.2c0.5-0.1,0.8-0.3,1-0.5c0.2-0.2,0.3-0.5,0.3-0.9s-0.1-0.7-0.3-0.9
			c-0.2-0.2-0.5-0.4-1-0.5c-0.5-0.1-1.2-0.2-2-0.2c-0.8,0-1.9-0.1-3.2-0.1C646.7,242.7,645.6,242.7,644.8,242.7z"/>
		<path fill="#FFFFFF" d="M652.5,252.6c1.2,0.2,2.3,0.6,3,1.1c0.8,0.5,1.4,1.2,1.7,2.1c0.4,0.9,0.5,1.9,0.5,3.2s-0.2,2.3-0.5,3.2
			s-0.9,1.6-1.7,2.1c-0.8,0.5-1.8,0.9-3,1.1c-1.2,0.2-2.7,0.3-4.5,0.3c-1.8,0-3.3-0.1-4.5-0.3c-1.2-0.2-2.3-0.6-3-1.1
			c-0.8-0.5-1.3-1.2-1.7-2.1c-0.3-0.9-0.5-1.9-0.5-3.2s0.2-2.3,0.5-3.2c0.3-0.9,0.9-1.6,1.7-2.1c0.8-0.5,1.8-0.9,3-1.1
			c1.2-0.2,2.7-0.3,4.5-0.3C649.7,252.3,651.2,252.4,652.5,252.6z M644.8,257.4c-0.8,0-1.5,0.1-2,0.2s-0.8,0.3-1,0.5
			c-0.2,0.2-0.3,0.5-0.3,0.9s0.1,0.7,0.3,0.9c0.2,0.2,0.5,0.4,1,0.5c0.5,0.1,1.2,0.2,2,0.2c0.8,0,1.9,0.1,3.2,0.1
			c1.3,0,2.3,0,3.2-0.1c0.8,0,1.5-0.1,2-0.2c0.5-0.1,0.8-0.3,1-0.5c0.2-0.2,0.3-0.5,0.3-0.9s-0.1-0.7-0.3-0.9
			c-0.2-0.2-0.5-0.4-1-0.5c-0.5-0.1-1.2-0.2-2-0.2c-0.8,0-1.9-0.1-3.2-0.1C646.7,257.3,645.6,257.4,644.8,257.4z"/>
		<path fill="#FFFFFF" d="M657.4,274.7c0,1.4-0.3,2.5-0.8,3.3c-0.5,0.8-1.2,1.4-2.1,1.8s-1.9,0.6-3,0.7c-1.1,0.1-2.3,0.1-3.6,0.1
			c-1.2,0-2.4,0-3.6-0.1c-1.1-0.1-2.1-0.3-3-0.7s-1.6-1-2.1-1.8c-0.5-0.8-0.8-1.9-0.8-3.3v-7.1h18.9V274.7z M642.1,273.4
			c0,0.5,0.1,0.9,0.2,1.1c0.1,0.3,0.4,0.5,0.8,0.6c0.4,0.1,1,0.2,1.8,0.3c0.8,0,1.8,0.1,3.1,0.1c1.3,0,2.3,0,3.1-0.1
			c0.8,0,1.4-0.1,1.8-0.3c0.4-0.1,0.7-0.4,0.8-0.6c0.1-0.3,0.2-0.7,0.2-1.1v-1h-11.8V273.4z"/>
	</g>
	<g>
		<path fill="#FFFFFF" d="M485.4,60.4c0,1.4-0.3,2.5-0.8,3.3c-0.5,0.8-1.2,1.4-2.1,1.8s-1.9,0.6-3,0.7c-1.1,0.1-2.3,0.1-3.6,0.1
			c-1.2,0-2.4,0-3.6-0.1c-1.1-0.1-2.1-0.3-3-0.7s-1.6-1-2.1-1.8c-0.5-0.8-0.8-1.9-0.8-3.3v-7.1h18.9V60.4z M470.1,59.2
			c0,0.5,0.1,0.9,0.2,1.1c0.1,0.3,0.4,0.5,0.8,0.6c0.4,0.1,1,0.2,1.8,0.3c0.8,0,1.8,0.1,3.1,0.1c1.3,0,2.3,0,3.1-0.1
			c0.8,0,1.4-0.1,1.8-0.3c0.4-0.1,0.7-0.4,0.8-0.6c0.1-0.3,0.2-0.7,0.2-1.1v-1h-11.8V59.2z"/>
		<path fill="#FFFFFF" d="M485.4,77.3l-18.9,4.6v-5.2l3.3-0.5v-3.9l-3.3-0.5v-5.2l18.9,4.5V77.3z M481.6,74.1l-8-1.3v2.7L481.6,74.1
			L481.6,74.1z"/>
		<path fill="#FFFFFF" d="M485.4,87.4h-18.9v-4.9h18.9V87.4z"/>
		<path fill="#FFFFFF" d="M485.4,97.2c0,0.9-0.1,1.7-0.4,2.4c-0.2,0.7-0.6,1.2-1,1.6s-1,0.7-1.6,0.9c-0.6,0.2-1.3,0.3-2,0.3
			c-1.3,0-2.3-0.3-3.1-0.8c-0.8-0.5-1.3-1.3-1.4-2.5h-0.1c-0.1,1.2-0.5,2-1.2,2.4s-1.7,0.7-3,0.7H470c-0.2,0-0.5,0-0.8,0
			c-0.3,0-0.5,0-0.8,0c-0.2,0-0.5,0-0.6,0.1c-0.2,0-0.3,0.1-0.4,0.1c-0.1,0.1-0.2,0.1-0.3,0.2c-0.1,0.1-0.2,0.2-0.3,0.3h-0.3v-5.2
			c0.2-0.1,0.5-0.2,0.9-0.3c0.3-0.1,0.7-0.1,1-0.1c0.3,0,0.7,0,1-0.1c0.3,0,0.6,0,0.8,0h1.3c0.5,0,1,0,1.3-0.1
			c0.4-0.1,0.6-0.1,0.8-0.3c0.2-0.1,0.3-0.3,0.4-0.5c0.1-0.2,0.1-0.5,0.1-0.8v-1.3h-7.6v-4.9h18.9V97.2z M477.4,95.4
			c0,0.7,0.2,1.2,0.6,1.6c0.4,0.3,1,0.5,1.6,0.5c0.8,0,1.4-0.2,1.7-0.5c0.3-0.3,0.5-0.9,0.5-1.6v-1h-4.4V95.4z"/>
		<path fill="#FFFFFF" d="M485.4,102.6v5.3l-6.6,1.9v0.1l6.6,1.9v5.4l-11.4-4.8h-7.4v-4.9h7.4L485.4,102.6z"/>
	</g>
	<g>
		<path fill="#FFFFFF" d="M283.8,117.5h-4v-6.3h-3.2v5.9h-3.9v-5.9H265v-4.9h18.9V117.5z"/>
		<path fill="#FFFFFF" d="M283.8,126.8c0,0.9-0.1,1.7-0.4,2.4c-0.2,0.7-0.6,1.2-1,1.6s-1,0.7-1.6,0.9c-0.6,0.2-1.3,0.3-2,0.3
			c-1.3,0-2.3-0.3-3.1-0.8c-0.8-0.5-1.3-1.3-1.4-2.5h-0.1c-0.1,1.2-0.5,2-1.2,2.4s-1.7,0.7-3,0.7h-1.6c-0.2,0-0.5,0-0.8,0
			s-0.5,0-0.8,0s-0.5,0-0.6,0.1c-0.2,0-0.3,0.1-0.4,0.1c-0.1,0.1-0.2,0.1-0.3,0.2c-0.1,0.1-0.2,0.2-0.3,0.3H265v-5.2
			c0.2-0.1,0.5-0.2,0.9-0.3c0.3-0.1,0.7-0.1,1-0.1c0.3,0,0.7,0,1-0.1c0.3,0,0.6,0,0.8,0h1.3c0.5,0,1,0,1.3-0.1
			c0.4-0.1,0.6-0.1,0.8-0.3c0.2-0.1,0.3-0.3,0.4-0.5c0.1-0.2,0.1-0.5,0.1-0.8V124H265v-4.9h18.9V126.8z M275.9,125
			c0,0.7,0.2,1.2,0.6,1.6c0.4,0.3,1,0.5,1.6,0.5c0.8,0,1.4-0.2,1.7-0.5c0.3-0.3,0.5-0.9,0.5-1.6v-1h-4.4V125z"/>
		<path fill="#FFFFFF" d="M278.9,134c1.2,0.2,2.3,0.6,3,1.1c0.8,0.5,1.4,1.2,1.7,2.1c0.4,0.9,0.5,1.9,0.5,3.2s-0.2,2.3-0.5,3.2
			c-0.4,0.9-0.9,1.6-1.7,2.1c-0.8,0.5-1.8,0.9-3,1.1c-1.2,0.2-2.7,0.3-4.5,0.3c-1.8,0-3.3-0.1-4.5-0.3c-1.2-0.2-2.3-0.6-3-1.1
			c-0.8-0.5-1.3-1.2-1.7-2.1s-0.5-1.9-0.5-3.2s0.2-2.3,0.5-3.2c0.3-0.9,0.9-1.6,1.7-2.1c0.8-0.5,1.8-0.9,3-1.1
			c1.2-0.2,2.7-0.3,4.5-0.3C276.2,133.7,277.7,133.8,278.9,134z M271.2,138.8c-0.8,0-1.5,0.1-2,0.2s-0.8,0.3-1,0.5
			c-0.2,0.2-0.3,0.5-0.3,0.9s0.1,0.7,0.3,0.9c0.2,0.2,0.5,0.4,1,0.5c0.5,0.1,1.2,0.2,2,0.2c0.8,0,1.9,0.1,3.2,0.1s2.3,0,3.2-0.1
			c0.8,0,1.5-0.1,2-0.2c0.5-0.1,0.8-0.3,1-0.5c0.2-0.2,0.3-0.5,0.3-0.9s-0.1-0.7-0.3-0.9c-0.2-0.2-0.5-0.4-1-0.5
			c-0.5-0.1-1.2-0.2-2-0.2s-1.9-0.1-3.2-0.1S272.1,138.8,271.2,138.8z"/>
		<path fill="#FFFFFF" d="M279.8,154.2v-5.5h4V160h-3.5l-11.3-6v6h-4v-11.7h3.5L279.8,154.2z"/>
		<path fill="#FFFFFF" d="M283.8,172.8h-4v-6.3h-3.2v5.9h-3.9v-5.9H269v6.5h-4v-11.4h18.9V172.8z"/>
		<path fill="#FFFFFF" d="M283.8,180.4l-11.6,3.2v0.1h11.6v4.6H265v-5.4l11.7-3.3v-0.1H265v-4.6h18.9V180.4z"/>
		<path fill="#FFFFFF" d="M252.1,117.5h-4v-6.3h-3.2v5.9H241v-5.9h-7.8v-4.9h18.9V117.5z"/>
		<path fill="#FFFFFF" d="M247.2,118.9c1.2,0.2,2.3,0.6,3,1.1c0.8,0.5,1.4,1.2,1.7,2.1c0.4,0.9,0.5,1.9,0.5,3.2s-0.2,2.3-0.5,3.2
			c-0.4,0.9-0.9,1.6-1.7,2.1c-0.8,0.5-1.8,0.9-3,1.1c-1.2,0.2-2.7,0.3-4.5,0.3c-1.8,0-3.3-0.1-4.5-0.3c-1.2-0.2-2.3-0.6-3-1.1
			c-0.8-0.5-1.3-1.2-1.7-2.1s-0.5-1.9-0.5-3.2s0.2-2.3,0.5-3.2c0.3-0.9,0.9-1.6,1.7-2.1c0.8-0.5,1.8-0.9,3-1.1
			c1.2-0.2,2.7-0.3,4.5-0.3C244.4,118.5,246,118.6,247.2,118.9z M239.5,123.6c-0.8,0-1.5,0.1-2,0.2s-0.8,0.3-1,0.5
			c-0.2,0.2-0.3,0.5-0.3,0.9s0.1,0.7,0.3,0.9c0.2,0.2,0.5,0.4,1,0.5c0.5,0.1,1.2,0.2,2,0.2c0.8,0,1.9,0.1,3.2,0.1s2.3,0,3.2-0.1
			c0.8,0,1.5-0.1,2-0.2c0.5-0.1,0.8-0.3,1-0.5c0.2-0.2,0.3-0.5,0.3-0.9s-0.1-0.7-0.3-0.9c-0.2-0.2-0.5-0.4-1-0.5
			c-0.5-0.1-1.2-0.2-2-0.2s-1.9-0.1-3.2-0.1S240.4,123.6,239.5,123.6z"/>
		<path fill="#FFFFFF" d="M247.2,133.6c1.2,0.2,2.3,0.6,3,1.1c0.8,0.5,1.4,1.2,1.7,2.1c0.4,0.9,0.5,1.9,0.5,3.2s-0.2,2.3-0.5,3.2
			c-0.4,0.9-0.9,1.6-1.7,2.1c-0.8,0.5-1.8,0.9-3,1.1c-1.2,0.2-2.7,0.3-4.5,0.3c-1.8,0-3.3-0.1-4.5-0.3c-1.2-0.2-2.3-0.6-3-1.1
			c-0.8-0.5-1.3-1.2-1.7-2.1s-0.5-1.9-0.5-3.2s0.2-2.3,0.5-3.2c0.3-0.9,0.9-1.6,1.7-2.1c0.8-0.5,1.8-0.9,3-1.1
			c1.2-0.2,2.7-0.3,4.5-0.3C244.4,133.2,246,133.3,247.2,133.6z M239.5,138.3c-0.8,0-1.5,0.1-2,0.2s-0.8,0.3-1,0.5
			c-0.2,0.2-0.3,0.5-0.3,0.9s0.1,0.7,0.3,0.9c0.2,0.2,0.5,0.4,1,0.5c0.5,0.1,1.2,0.2,2,0.2c0.8,0,1.9,0.1,3.2,0.1s2.3,0,3.2-0.1
			c0.8,0,1.5-0.1,2-0.2c0.5-0.1,0.8-0.3,1-0.5c0.2-0.2,0.3-0.5,0.3-0.9s-0.1-0.7-0.3-0.9c-0.2-0.2-0.5-0.4-1-0.5
			c-0.5-0.1-1.2-0.2-2-0.2s-1.9-0.1-3.2-0.1S240.4,138.3,239.5,138.3z"/>
		<path fill="#FFFFFF" d="M252.1,155.6c0,1.4-0.3,2.5-0.8,3.3c-0.5,0.8-1.2,1.4-2.1,1.8c-0.9,0.4-1.9,0.6-3,0.7s-2.3,0.1-3.6,0.1
			c-1.2,0-2.4,0-3.6-0.1s-2.1-0.3-3-0.7s-1.6-1-2.1-1.8c-0.5-0.8-0.8-1.9-0.8-3.3v-7.1h18.9V155.6z M236.8,154.4
			c0,0.5,0.1,0.9,0.2,1.1c0.1,0.3,0.4,0.5,0.8,0.6c0.4,0.1,1,0.2,1.8,0.3c0.8,0,1.8,0.1,3.1,0.1s2.3,0,3.1-0.1
			c0.8,0,1.4-0.1,1.8-0.3c0.4-0.1,0.7-0.4,0.8-0.6c0.1-0.3,0.2-0.7,0.2-1.1v-1h-11.8V154.4z"/>
		<path fill="#FFFFFF" d="M247.1,171c0.6,0,1-0.1,1.4-0.3c0.4-0.2,0.6-0.6,0.6-1.1c0-0.5-0.2-0.9-0.5-1.2c-0.3-0.2-0.7-0.4-1.1-0.4
			c-0.6,0-1.1,0.2-1.5,0.6c-0.4,0.4-0.7,0.9-0.9,1.5c-0.3,0.6-0.5,1.2-0.8,1.9c-0.3,0.7-0.6,1.3-1.1,1.9c-0.4,0.6-1,1.1-1.7,1.5
			c-0.7,0.4-1.6,0.6-2.8,0.6c-2,0-3.5-0.6-4.4-1.7c-0.9-1.1-1.4-2.8-1.4-5c0-1,0.1-1.9,0.3-2.7c0.2-0.8,0.5-1.4,0.9-2
			c0.4-0.5,1-0.9,1.6-1.2c0.7-0.3,1.5-0.4,2.5-0.4h0.7v4.8h-0.4c-0.8,0-1.4,0.1-1.7,0.4c-0.3,0.3-0.5,0.7-0.5,1.2
			c0,0.5,0.2,0.9,0.5,1.2c0.4,0.3,0.8,0.4,1.3,0.4c0.6,0,1.1-0.2,1.5-0.6c0.4-0.4,0.7-0.9,0.9-1.4c0.3-0.6,0.5-1.2,0.8-1.9
			s0.6-1.3,1-1.9s1-1,1.7-1.4c0.7-0.4,1.6-0.6,2.7-0.6c1.9,0,3.4,0.5,4.4,1.5c1,1,1.5,2.6,1.5,4.7c0,2.1-0.5,3.7-1.4,4.7
			c-0.9,1-2.4,1.4-4.4,1.4V171H247.1z"/>
	</g>
	<g>
		<path fill="#FFFFFF" d="M113.8,184.1c0,1.8-0.4,3.1-1.3,3.9c-0.9,0.8-2,1.3-3.4,1.3c-0.5,0-1-0.1-1.4-0.2
			c-0.5-0.1-0.9-0.3-1.3-0.5c-0.4-0.2-0.7-0.5-1-0.9c-0.3-0.4-0.4-0.8-0.6-1.3h-0.1c-0.1,0.6-0.2,1.1-0.5,1.6
			c-0.3,0.4-0.6,0.8-1,1.1c-0.4,0.3-0.9,0.5-1.3,0.6c-0.5,0.1-1,0.2-1.5,0.2c-0.8,0-1.6-0.1-2.2-0.3s-1.3-0.5-1.8-1
			c-0.5-0.4-0.9-1-1.1-1.8c-0.3-0.7-0.4-1.6-0.4-2.6v-7.4h18.9V184.1z M98.5,183c0,0.5,0.2,0.9,0.6,1.2c0.4,0.4,1,0.5,1.8,0.5
			c0.7,0,1.3-0.2,1.7-0.5c0.4-0.4,0.6-0.8,0.6-1.2v-1.4h-4.6V183z M106.4,182.8c0,0.5,0.2,0.9,0.6,1.2s0.8,0.4,1.3,0.4
			c0.5,0,1-0.1,1.4-0.4s0.6-0.7,0.6-1.2v-1.2h-3.9V182.8z"/>
		<path fill="#FFFFFF" d="M113.8,201L95,205.6v-5.2l3.3-0.5v-3.9l-3.3-0.5v-5.2l18.9,4.5V201z M110,197.9l-8-1.3v2.7L110,197.9
			L110,197.9z"/>
		<path fill="#FFFFFF" d="M113.8,211.1h-7.2v0.1l7.2,3.6v5.2l-8.2-4.8L95,220.6V215l6.6-2.9l-1.6-1h-5v-4.9h18.9V211.1z"/>
		<path fill="#FFFFFF" d="M113.8,232.3h-4V226h-3.2v5.9h-3.9V226H99v6.5h-4v-11.4h18.9V232.3z"/>
		<path fill="#FFFFFF" d="M113.8,242c0,0.9-0.1,1.7-0.4,2.4c-0.2,0.7-0.6,1.2-1,1.6s-1,0.7-1.6,0.9c-0.6,0.2-1.3,0.3-2,0.3
			c-1.3,0-2.3-0.3-3.1-0.8c-0.8-0.5-1.3-1.3-1.4-2.5h-0.1c-0.1,1.2-0.5,2-1.2,2.4s-1.7,0.7-3,0.7h-1.6c-0.2,0-0.5,0-0.8,0
			s-0.5,0-0.8,0s-0.5,0-0.6,0.1c-0.2,0-0.3,0.1-0.4,0.1c-0.1,0.1-0.2,0.1-0.3,0.2c-0.1,0.1-0.2,0.2-0.3,0.3H95v-5.2
			c0.2-0.1,0.5-0.2,0.9-0.3c0.3-0.1,0.7-0.1,1-0.1c0.3,0,0.7,0,1-0.1c0.3,0,0.6,0,0.8,0h1.3c0.5,0,1,0,1.3-0.1
			c0.4-0.1,0.6-0.1,0.8-0.3c0.2-0.1,0.3-0.3,0.4-0.5c0.1-0.2,0.1-0.5,0.1-0.8v-1.3H95v-4.9h18.9V242z M105.9,240.2
			c0,0.7,0.2,1.2,0.6,1.6c0.4,0.3,1,0.5,1.6,0.5c0.8,0,1.4-0.2,1.7-0.5c0.3-0.3,0.5-0.9,0.5-1.6v-1h-4.4V240.2z"/>
		<path fill="#FFFFFF" d="M113.8,247.3v5.3l-6.6,1.9v0.1l6.6,1.9v5.4l-11.4-4.8H95v-4.9h7.4L113.8,247.3z"/>
	</g>
	<g>
		<path fill="#FFFFFF" d="M87.4,491.2c0.4-0.2,0.6-0.6,0.6-1c0-0.4-0.1-0.7-0.3-0.9c-0.2-0.2-0.5-0.4-1-0.5c-0.5-0.1-1.2-0.2-2-0.2
			s-1.9-0.1-3.2-0.1s-2.3,0-3.2,0.1c-0.8,0-1.5,0.1-2,0.2s-0.8,0.3-1,0.5c-0.2,0.2-0.3,0.5-0.3,0.9c0,0.3,0.1,0.5,0.2,0.7
			c0.1,0.2,0.4,0.3,0.8,0.4c0.4,0.1,0.8,0.2,1.4,0.2c0.6,0,1.3,0.1,2.2,0.1v4.8h-1.4c-1.3,0-2.4-0.2-3.3-0.5s-1.5-0.8-2-1.4
			c-0.5-0.6-0.8-1.2-1-2c-0.2-0.7-0.3-1.5-0.3-2.3c0-1.4,0.2-2.5,0.5-3.4c0.3-0.9,0.9-1.6,1.7-2.1c0.8-0.5,1.8-0.8,3-1
			c1.2-0.2,2.7-0.3,4.5-0.3c1.8,0,3.3,0.1,4.6,0.3c1.3,0.2,2.3,0.6,3,1.1c0.8,0.5,1.3,1.2,1.7,2.1c0.3,0.9,0.5,1.9,0.5,3.2
			c0,1.1-0.1,2.1-0.4,2.8c-0.3,0.8-0.7,1.4-1.2,1.9c-0.5,0.5-1.1,0.8-1.9,1.1c-0.7,0.2-1.6,0.3-2.5,0.3h-1.2v-4.8h1.1
			C86.3,491.5,87,491.4,87.4,491.2z"/>
		<path fill="#FFFFFF" d="M90.9,503.1H84v3h6.9v4.9H72.1v-4.9h7.8v-3h-7.8v-4.9h18.9V503.1z"/>
		<path fill="#FFFFFF" d="M90.9,524.5h-4v-6.3h-3.2v5.9h-3.9v-5.9h-3.8v6.5h-4v-11.4h18.9V524.5z"/>
		<path fill="#FFFFFF" d="M90.9,531.3h-7.2v0.1l7.2,3.6v5.2l-8.2-4.8l-10.6,5.3v-5.6l6.6-2.9l-1.6-1h-5v-4.9h18.9V531.3z"/>
		<path fill="#FFFFFF" d="M86,541c1.2,0.2,2.3,0.6,3,1.1c0.8,0.5,1.4,1.2,1.7,2.1c0.4,0.9,0.5,1.9,0.5,3.2s-0.2,2.3-0.5,3.2
			c-0.4,0.9-0.9,1.6-1.7,2.1c-0.8,0.5-1.8,0.9-3,1.1c-1.2,0.2-2.7,0.3-4.5,0.3c-1.8,0-3.3-0.1-4.5-0.3c-1.2-0.2-2.3-0.6-3-1.1
			c-0.8-0.5-1.3-1.2-1.7-2.1s-0.5-1.9-0.5-3.2s0.2-2.3,0.5-3.2c0.3-0.9,0.9-1.6,1.7-2.1c0.8-0.5,1.8-0.9,3-1.1
			c1.2-0.2,2.7-0.3,4.5-0.3C83.3,540.7,84.8,540.8,86,541z M78.3,545.8c-0.8,0-1.5,0.1-2,0.2s-0.8,0.3-1,0.5
			c-0.2,0.2-0.3,0.5-0.3,0.9s0.1,0.7,0.3,0.9c0.2,0.2,0.5,0.4,1,0.5c0.5,0.1,1.2,0.2,2,0.2c0.8,0,1.9,0.1,3.2,0.1s2.3,0,3.2-0.1
			c0.8,0,1.5-0.1,2-0.2c0.5-0.1,0.8-0.3,1-0.5c0.2-0.2,0.3-0.5,0.3-0.9s-0.1-0.7-0.3-0.9c-0.2-0.2-0.5-0.4-1-0.5
			c-0.5-0.1-1.2-0.2-2-0.2s-1.9-0.1-3.2-0.1S79.2,545.8,78.3,545.8z"/>
		<path fill="#FFFFFF" d="M77.3,560.6c-0.9,0-1.5,0.1-1.8,0.4s-0.5,0.6-0.5,1.1c0,0.5,0.2,0.8,0.5,1.1s0.9,0.4,1.8,0.4h13.6v4.9
			H78.6c-1.3,0-2.4-0.1-3.3-0.4c-0.9-0.3-1.6-0.7-2.1-1.2c-0.5-0.5-0.9-1.2-1.1-2s-0.3-1.7-0.3-2.7c0-1,0.1-1.9,0.3-2.7
			s0.6-1.5,1.1-2c0.5-0.5,1.2-0.9,2.1-1.2c0.9-0.3,2-0.4,3.3-0.4h12.4v4.9H77.3z"/>
		<path fill="#FFFFFF" d="M86.8,569.5h4.2v12.3h-4.2V578H72.1v-4.9h14.7V569.5z"/>
	</g>
	<g>
		<path fill="#FFFFFF" d="M380.3,233.5l-8.5,2.3v0h8.5v3.4h-13.8v-4l8.5-2.4v0h-8.5v-3.4h13.8V233.5z"/>
		<path fill="#FFFFFF" d="M380.3,247.8l-13.8,3.4v-3.8l2.4-0.4v-2.9l-2.4-0.4v-3.8l13.8,3.3V247.8z M377.5,245.5l-5.9-1v2
			L377.5,245.5L377.5,245.5z"/>
		<path fill="#FFFFFF" d="M377.3,249.8h3.1v9h-3.1v-2.7h-10.8v-3.6h10.8V249.8z"/>
		<path fill="#FFFFFF" d="M370.3,263.1c-0.7,0-1.1,0.1-1.3,0.3s-0.3,0.5-0.3,0.8c0,0.3,0.1,0.6,0.3,0.8s0.7,0.3,1.3,0.3h10v3.6h-9.1
			c-1,0-1.8-0.1-2.4-0.3c-0.6-0.2-1.2-0.5-1.6-0.9c-0.4-0.4-0.7-0.9-0.8-1.5c-0.1-0.6-0.2-1.3-0.2-2c0-0.7,0.1-1.4,0.2-2
			s0.4-1.1,0.8-1.5c0.4-0.4,0.9-0.7,1.6-0.9c0.6-0.2,1.5-0.3,2.4-0.3h9.1v3.6H370.3z"/>
		<path fill="#FFFFFF" d="M380.3,276.1c0,0.7-0.1,1.3-0.3,1.8c-0.2,0.5-0.4,0.9-0.8,1.2s-0.7,0.5-1.2,0.7c-0.5,0.1-0.9,0.2-1.5,0.2
			c-0.9,0-1.7-0.2-2.2-0.6c-0.6-0.4-0.9-1-1-1.8h0c-0.1,0.9-0.4,1.5-0.9,1.8c-0.5,0.3-1.3,0.5-2.2,0.5H369c-0.2,0-0.4,0-0.6,0
			s-0.4,0-0.6,0c-0.2,0-0.3,0-0.5,0.1c-0.1,0-0.3,0.1-0.3,0.1c-0.1,0.1-0.2,0.1-0.2,0.2c-0.1,0.1-0.1,0.1-0.2,0.3h-0.2v-3.8
			c0.2-0.1,0.4-0.2,0.6-0.2c0.2,0,0.5-0.1,0.7-0.1c0.2,0,0.5,0,0.7,0s0.4,0,0.6,0h0.9c0.4,0,0.7,0,1-0.1c0.3,0,0.5-0.1,0.6-0.2
			c0.1-0.1,0.3-0.2,0.3-0.4c0.1-0.1,0.1-0.3,0.1-0.6V274h-5.5v-3.6h13.8V276.1z M374.5,274.7c0,0.5,0.2,0.9,0.5,1.1
			c0.3,0.2,0.7,0.4,1.2,0.4c0.6,0,1-0.1,1.2-0.4c0.2-0.2,0.4-0.6,0.4-1.2V274h-3.3V274.7z"/>
		<path fill="#FFFFFF" d="M380.3,288.3l-13.8,3.4v-3.8l2.4-0.4v-2.9l-2.4-0.4v-3.8l13.8,3.3V288.3z M377.5,286.1l-5.9-1v2
			L377.5,286.1L377.5,286.1z"/>
		<path fill="#FFFFFF" d="M380.3,295.9h-10.9v4.4h-2.9v-8h13.8V295.9z"/>
		<path fill="#FFFFFF" d="M357.1,232.2l-10.4,1.5v0l10.4,1.5v3.8l-13.8-3v-4.7l13.8-2.9V232.2z"/>
		<path fill="#FFFFFF" d="M357.1,245.7l-13.8,3.4v-3.8l2.4-0.4V242l-2.4-0.4v-3.8l13.8,3.3V245.7z M354.2,243.4l-5.9-1v2
			L354.2,243.4L354.2,243.4z"/>
		<path fill="#FFFFFF" d="M357.1,253.2h-10.9v4.4h-2.9v-8h13.8V253.2z"/>
		<path fill="#FFFFFF" d="M347.1,262.1c-0.7,0-1.1,0.1-1.3,0.3s-0.3,0.5-0.3,0.8c0,0.3,0.1,0.6,0.3,0.8s0.7,0.3,1.3,0.3h10v3.6H348
			c-1,0-1.8-0.1-2.4-0.3c-0.6-0.2-1.2-0.5-1.6-0.9c-0.4-0.4-0.7-0.9-0.8-1.5c-0.1-0.6-0.2-1.3-0.2-2c0-0.7,0.1-1.4,0.2-2
			s0.4-1.1,0.8-1.5c0.4-0.4,0.9-0.7,1.6-0.9c0.6-0.2,1.5-0.3,2.4-0.3h9.1v3.6H347.1z"/>
		<path fill="#FFFFFF" d="M357.1,277.6h-2.9V273h-2.4v4.3h-2.8V273h-2.8v4.8h-2.9v-8.4h13.8V277.6z"/>
	</g>
	<g>
		<path fill="#FFFFFF" d="M368.7,763.7c0,0.7-0.1,1.3-0.3,1.8c-0.2,0.5-0.5,0.9-0.9,1.2c-0.4,0.3-0.8,0.6-1.3,0.7
			c-0.5,0.2-1.1,0.2-1.7,0.2c-1.4,0-2.5-0.4-3.2-1.2c-0.7-0.8-1.1-1.9-1.1-3.4v-1.3h-5.3v-3.6h13.8V763.7z M362.7,762.6
			c0,0.5,0.1,0.8,0.4,1c0.3,0.2,0.7,0.4,1.3,0.4c1.1,0,1.7-0.5,1.7-1.4v-0.7h-3.4V762.6z"/>
		<path fill="#FFFFFF" d="M368.7,774.5c0,0.7-0.1,1.3-0.3,1.8c-0.2,0.5-0.4,0.9-0.8,1.2s-0.7,0.5-1.2,0.7s-0.9,0.2-1.5,0.2
			c-0.9,0-1.7-0.2-2.2-0.6c-0.6-0.4-0.9-1-1-1.8h0c-0.1,0.9-0.4,1.5-0.9,1.8s-1.3,0.5-2.2,0.5h-1.2c-0.2,0-0.4,0-0.6,0s-0.4,0-0.6,0
			c-0.2,0-0.3,0-0.5,0.1c-0.1,0-0.3,0.1-0.3,0.1c-0.1,0.1-0.2,0.1-0.2,0.2c-0.1,0.1-0.1,0.1-0.2,0.3h-0.2V775
			c0.2-0.1,0.4-0.2,0.6-0.2c0.2,0,0.5-0.1,0.7-0.1s0.5,0,0.7,0c0.2,0,0.4,0,0.6,0h0.9c0.4,0,0.7,0,1-0.1c0.3,0,0.5-0.1,0.6-0.2
			s0.3-0.2,0.3-0.4c0.1-0.1,0.1-0.3,0.1-0.6v-0.9h-5.5v-3.6h13.8V774.5z M362.8,773.2c0,0.5,0.2,0.9,0.5,1.1
			c0.3,0.2,0.7,0.4,1.2,0.4c0.6,0,1-0.1,1.2-0.4c0.2-0.2,0.4-0.6,0.4-1.2v-0.7h-3.3V773.2z"/>
		<path fill="#FFFFFF" d="M365.1,779.9c0.9,0.2,1.7,0.4,2.2,0.8c0.6,0.4,1,0.9,1.3,1.5c0.3,0.6,0.4,1.4,0.4,2.3
			c0,0.9-0.1,1.7-0.4,2.3c-0.3,0.6-0.7,1.1-1.3,1.5c-0.6,0.4-1.3,0.7-2.2,0.8c-0.9,0.2-2,0.3-3.3,0.3s-2.4-0.1-3.3-0.3
			c-0.9-0.2-1.7-0.4-2.2-0.8c-0.6-0.4-1-0.9-1.2-1.5c-0.2-0.6-0.4-1.4-0.4-2.3c0-0.9,0.1-1.7,0.4-2.3c0.2-0.6,0.7-1.1,1.2-1.5
			c0.6-0.4,1.3-0.7,2.2-0.8c0.9-0.2,2-0.3,3.3-0.3S364.2,779.7,365.1,779.9z M359.5,783.4c-0.6,0-1.1,0.1-1.5,0.2s-0.6,0.2-0.8,0.4
			c-0.1,0.2-0.2,0.4-0.2,0.6s0.1,0.5,0.2,0.6s0.4,0.3,0.8,0.4s0.8,0.1,1.5,0.2c0.6,0,1.4,0,2.3,0s1.7,0,2.3,0c0.6,0,1.1-0.1,1.5-0.2
			s0.6-0.2,0.8-0.4s0.2-0.4,0.2-0.6s-0.1-0.5-0.2-0.6c-0.1-0.2-0.4-0.3-0.8-0.4s-0.8-0.1-1.5-0.2c-0.6,0-1.4,0-2.3,0
			S360.1,783.3,359.5,783.4z"/>
		<path fill="#FFFFFF" d="M368.7,796c0,1-0.2,1.9-0.6,2.4c-0.4,0.6-0.9,1-1.5,1.3s-1.4,0.5-2.2,0.5c-0.8,0.1-1.7,0.1-2.6,0.1
			s-1.8,0-2.6-0.1c-0.8-0.1-1.6-0.2-2.2-0.5c-0.6-0.3-1.2-0.7-1.5-1.3c-0.4-0.6-0.6-1.4-0.6-2.4v-5.2h13.8V796z M357.4,795.1
			c0,0.3,0,0.6,0.1,0.8c0.1,0.2,0.3,0.4,0.6,0.5c0.3,0.1,0.7,0.2,1.3,0.2c0.6,0,1.3,0,2.2,0s1.7,0,2.2,0c0.6,0,1-0.1,1.3-0.2
			c0.3-0.1,0.5-0.3,0.6-0.5c0.1-0.2,0.1-0.5,0.1-0.8v-0.7h-8.6V795.1z"/>
		<path fill="#FFFFFF" d="M358.7,805.4c-0.7,0-1.1,0.1-1.3,0.3c-0.2,0.2-0.3,0.5-0.3,0.8s0.1,0.6,0.3,0.8c0.2,0.2,0.7,0.3,1.3,0.3
			h10v3.6h-9.1c-1,0-1.8-0.1-2.4-0.3c-0.6-0.2-1.2-0.5-1.6-0.9c-0.4-0.4-0.7-0.9-0.8-1.5c-0.1-0.6-0.2-1.3-0.2-2
			c0-0.7,0.1-1.4,0.2-2s0.4-1.1,0.8-1.5c0.4-0.4,0.9-0.7,1.6-0.9c0.6-0.2,1.5-0.3,2.4-0.3h9.1v3.6H358.7z"/>
		<path fill="#FFFFFF" d="M366.1,818c0.3-0.2,0.4-0.4,0.4-0.8c0-0.3-0.1-0.5-0.2-0.6c-0.1-0.2-0.4-0.3-0.8-0.4s-0.8-0.1-1.5-0.2
			c-0.6,0-1.4,0-2.3,0s-1.7,0-2.3,0c-0.6,0-1.1,0.1-1.5,0.2s-0.6,0.2-0.8,0.4c-0.1,0.2-0.2,0.4-0.2,0.6c0,0.2,0.1,0.4,0.2,0.5
			c0.1,0.1,0.3,0.3,0.6,0.3c0.3,0.1,0.6,0.1,1,0.2c0.4,0,1,0,1.6,0v3.5h-1c-1,0-1.8-0.1-2.4-0.4s-1.1-0.6-1.5-1
			c-0.4-0.4-0.6-0.9-0.7-1.5c-0.1-0.5-0.2-1.1-0.2-1.7c0-1,0.1-1.8,0.4-2.5c0.2-0.6,0.7-1.2,1.2-1.5c0.6-0.4,1.3-0.6,2.2-0.7
			c0.9-0.1,2-0.2,3.3-0.2c1.3,0,2.4,0.1,3.4,0.2c0.9,0.2,1.7,0.4,2.2,0.8c0.6,0.4,1,0.9,1.2,1.5c0.3,0.6,0.4,1.4,0.4,2.3
			c0,0.8-0.1,1.5-0.3,2.1c-0.2,0.6-0.5,1-0.9,1.4c-0.4,0.4-0.8,0.6-1.4,0.8c-0.5,0.2-1.1,0.2-1.8,0.2h-0.9v-3.5h0.8
			C365.3,818.2,365.8,818.1,366.1,818z"/>
		<path fill="#FFFFFF" d="M368.7,831.3h-2.9v-4.6h-2.4v4.3h-2.8v-4.3h-2.8v4.8h-2.9v-8.4h13.8V831.3z"/>
	</g>
	<g>
		<path fill="#FFFFFF" d="M143,774.2H140v-4.6h-2.4v4.3h-2.8v-4.3h-5.7V766H143V774.2z"/>
		<path fill="#FFFFFF" d="M143,778.9h-10.9v4.4h-2.9v-8H143V778.9z"/>
		<path fill="#FFFFFF" d="M139.3,784.1c0.9,0.2,1.7,0.4,2.2,0.8c0.6,0.4,1,0.9,1.3,1.5c0.3,0.6,0.4,1.4,0.4,2.3
			c0,0.9-0.1,1.7-0.4,2.3c-0.3,0.6-0.7,1.1-1.3,1.5c-0.6,0.4-1.3,0.7-2.2,0.8c-0.9,0.2-2,0.3-3.3,0.3s-2.4-0.1-3.3-0.3
			c-0.9-0.2-1.7-0.4-2.2-0.8c-0.6-0.4-1-0.9-1.2-1.5c-0.2-0.6-0.4-1.4-0.4-2.3c0-0.9,0.1-1.7,0.4-2.3c0.2-0.6,0.7-1.1,1.2-1.5
			c0.6-0.4,1.3-0.7,2.2-0.8c0.9-0.2,2-0.3,3.3-0.3S138.4,783.9,139.3,784.1z M133.7,787.6c-0.6,0-1.1,0.1-1.5,0.2s-0.6,0.2-0.8,0.4
			c-0.1,0.2-0.2,0.4-0.2,0.6s0.1,0.5,0.2,0.6s0.4,0.3,0.8,0.4s0.8,0.1,1.5,0.2c0.6,0,1.4,0,2.3,0s1.7,0,2.3,0c0.6,0,1.1-0.1,1.5-0.2
			s0.6-0.2,0.8-0.4s0.2-0.4,0.2-0.6s-0.1-0.5-0.2-0.6c-0.1-0.2-0.4-0.3-0.8-0.4s-0.8-0.1-1.5-0.2c-0.6,0-1.4,0-2.3,0
			S134.3,787.6,133.7,787.6z"/>
		<path fill="#FFFFFF" d="M143,800.7c0,0.7-0.1,1.3-0.3,1.8c-0.2,0.5-0.4,0.9-0.8,1.2s-0.7,0.5-1.2,0.7s-0.9,0.2-1.5,0.2
			c-0.9,0-1.7-0.2-2.2-0.6c-0.6-0.4-0.9-1-1-1.8h0c-0.1,0.9-0.4,1.5-0.9,1.8s-1.3,0.5-2.2,0.5h-1.2c-0.2,0-0.4,0-0.6,0s-0.4,0-0.6,0
			c-0.2,0-0.3,0-0.5,0.1c-0.1,0-0.3,0.1-0.3,0.1c-0.1,0.1-0.2,0.1-0.2,0.2c-0.1,0.1-0.1,0.1-0.2,0.3h-0.2v-3.8
			c0.2-0.1,0.4-0.2,0.6-0.2c0.2,0,0.5-0.1,0.7-0.1s0.5,0,0.7,0c0.2,0,0.4,0,0.6,0h0.9c0.4,0,0.7,0,1-0.1c0.3,0,0.5-0.1,0.6-0.2
			s0.3-0.2,0.3-0.4c0.1-0.1,0.1-0.3,0.1-0.6v-0.9h-5.5V795H143V800.7z M137.1,799.4c0,0.5,0.2,0.9,0.5,1.1c0.3,0.2,0.7,0.4,1.2,0.4
			c0.6,0,1-0.1,1.2-0.4c0.2-0.2,0.4-0.6,0.4-1.2v-0.7h-3.3V799.4z"/>
		<path fill="#FFFFFF" d="M143,813l-13.8,3.4v-3.8l2.4-0.4v-2.9l-2.4-0.4v-3.8l13.8,3.3V813z M140.1,810.7l-5.9-1v2L140.1,810.7
			L140.1,810.7z"/>
		<path fill="#FFFFFF" d="M143,820.5h-10.9v4.4h-2.9v-8H143V820.5z"/>
	</g>
	<g>
		<path fill="#FFFFFF" d="M87.5,827.6c0.3-0.2,0.4-0.4,0.4-0.8c0-0.3-0.1-0.5-0.2-0.6c-0.1-0.2-0.4-0.3-0.8-0.4s-0.8-0.1-1.5-0.2
			c-0.6,0-1.4,0-2.3,0s-1.7,0-2.3,0c-0.6,0-1.1,0.1-1.5,0.2s-0.6,0.2-0.8,0.4c-0.1,0.2-0.2,0.4-0.2,0.6c0,0.2,0.1,0.4,0.2,0.5
			c0.1,0.1,0.3,0.3,0.6,0.3c0.3,0.1,0.6,0.1,1,0.2c0.4,0,1,0,1.6,0v3.5h-1c-1,0-1.8-0.1-2.4-0.4s-1.1-0.6-1.5-1
			c-0.4-0.4-0.6-0.9-0.7-1.5c-0.1-0.5-0.2-1.1-0.2-1.7c0-1,0.1-1.8,0.4-2.5c0.2-0.6,0.7-1.2,1.2-1.5c0.6-0.4,1.3-0.6,2.2-0.7
			c0.9-0.1,2-0.2,3.3-0.2c1.3,0,2.4,0.1,3.4,0.2c0.9,0.2,1.7,0.4,2.2,0.8c0.6,0.4,1,0.9,1.2,1.5c0.3,0.6,0.4,1.4,0.4,2.3
			c0,0.8-0.1,1.5-0.3,2.1c-0.2,0.6-0.5,1-0.9,1.4c-0.4,0.4-0.8,0.6-1.4,0.8c-0.5,0.2-1.1,0.2-1.8,0.2h-0.9v-3.5h0.8
			C86.7,827.9,87.2,827.8,87.5,827.6z"/>
		<path fill="#FFFFFF" d="M80.1,836.2c-0.7,0-1.1,0.1-1.3,0.3c-0.2,0.2-0.3,0.5-0.3,0.8s0.1,0.6,0.3,0.8c0.2,0.2,0.7,0.3,1.3,0.3h10
			v3.6H81c-1,0-1.8-0.1-2.4-0.3c-0.6-0.2-1.2-0.5-1.6-0.9c-0.4-0.4-0.7-0.9-0.8-1.5c-0.1-0.6-0.2-1.3-0.2-2c0-0.7,0.1-1.4,0.2-2
			s0.4-1.1,0.8-1.5c0.4-0.4,0.9-0.7,1.6-0.9c0.6-0.2,1.5-0.3,2.4-0.3h9.1v3.6H80.1z"/>
		<path fill="#FFFFFF" d="M86.5,848.9c0.4,0,0.8-0.1,1.1-0.3c0.3-0.2,0.4-0.4,0.4-0.8c0-0.4-0.1-0.7-0.4-0.9
			c-0.3-0.2-0.5-0.3-0.8-0.3c-0.5,0-0.8,0.1-1.1,0.4s-0.5,0.7-0.7,1.1s-0.4,0.9-0.6,1.4c-0.2,0.5-0.5,1-0.8,1.4
			c-0.3,0.4-0.7,0.8-1.3,1.1c-0.5,0.3-1.2,0.4-2,0.4c-1.5,0-2.5-0.4-3.2-1.3c-0.7-0.8-1-2.1-1-3.6c0-0.8,0.1-1.4,0.2-2
			c0.1-0.6,0.3-1.1,0.6-1.5c0.3-0.4,0.7-0.7,1.2-0.9s1.1-0.3,1.8-0.3h0.5v3.5h-0.3c-0.6,0-1,0.1-1.2,0.3c-0.2,0.2-0.4,0.5-0.4,0.9
			c0,0.4,0.1,0.7,0.4,0.9c0.3,0.2,0.6,0.3,0.9,0.3c0.5,0,0.8-0.1,1.1-0.4c0.3-0.3,0.5-0.6,0.7-1c0.2-0.4,0.4-0.9,0.6-1.4
			c0.2-0.5,0.4-0.9,0.8-1.4c0.3-0.4,0.7-0.8,1.2-1c0.5-0.3,1.2-0.4,2-0.4c1.4,0,2.5,0.4,3.2,1.1c0.7,0.7,1.1,1.9,1.1,3.4
			c0,1.6-0.3,2.7-1,3.4s-1.8,1.1-3.2,1.1v-3.4H86.5z"/>
		<path fill="#FFFFFF" d="M87.1,853.1h3.1v9h-3.1v-2.7H76.3v-3.6h10.8V853.1z"/>
		<path fill="#FFFFFF" d="M86.5,862.7c0.9,0.2,1.7,0.4,2.2,0.8c0.6,0.4,1,0.9,1.3,1.5c0.3,0.6,0.4,1.4,0.4,2.3
			c0,0.9-0.1,1.7-0.4,2.3c-0.3,0.6-0.7,1.1-1.3,1.5c-0.6,0.4-1.3,0.7-2.2,0.8c-0.9,0.2-2,0.3-3.3,0.3s-2.4-0.1-3.3-0.3
			c-0.9-0.2-1.7-0.4-2.2-0.8c-0.6-0.4-1-0.9-1.2-1.5c-0.2-0.6-0.4-1.4-0.4-2.3c0-0.9,0.1-1.7,0.4-2.3c0.2-0.6,0.7-1.1,1.2-1.5
			c0.6-0.4,1.3-0.7,2.2-0.8c0.9-0.2,2-0.3,3.3-0.3S85.6,862.6,86.5,862.7z M80.9,866.3c-0.6,0-1.1,0.1-1.5,0.2s-0.6,0.2-0.8,0.4
			c-0.1,0.2-0.2,0.4-0.2,0.6s0.1,0.5,0.2,0.6s0.4,0.3,0.8,0.4s0.8,0.1,1.5,0.2c0.6,0,1.4,0,2.3,0s1.7,0,2.3,0c0.6,0,1.1-0.1,1.5-0.2
			s0.6-0.2,0.8-0.4s0.2-0.4,0.2-0.6s-0.1-0.5-0.2-0.6c-0.1-0.2-0.4-0.3-0.8-0.4s-0.8-0.1-1.5-0.2c-0.6,0-1.4,0-2.3,0
			S81.5,866.2,80.9,866.3z"/>
		<path fill="#FFFFFF" d="M90.1,878.7l-8.2,1.5v0l8.2,1.5v5.2H76.3v-3.4h10.3v0l-10.3-1.9v-2.6l10.3-1.9v0H76.3v-3.4h13.8V878.7z"/>
		<path fill="#FFFFFF" d="M90.1,896.6h-2.9V892h-2.4v4.3H82V892h-2.8v4.8h-2.9v-8.4h13.8V896.6z"/>
		<path fill="#FFFFFF" d="M90.1,903.7c0,0.7-0.1,1.3-0.3,1.8c-0.2,0.5-0.4,0.9-0.8,1.2s-0.7,0.5-1.2,0.7s-0.9,0.2-1.5,0.2
			c-0.9,0-1.7-0.2-2.2-0.6c-0.6-0.4-0.9-1-1-1.8h0c-0.1,0.9-0.4,1.5-0.9,1.8s-1.3,0.5-2.2,0.5h-1.2c-0.2,0-0.4,0-0.6,0s-0.4,0-0.6,0
			c-0.2,0-0.3,0-0.5,0.1c-0.1,0-0.3,0.1-0.3,0.1c-0.1,0.1-0.2,0.1-0.2,0.2c-0.1,0.1-0.1,0.1-0.2,0.3h-0.2v-3.8
			c0.2-0.1,0.4-0.2,0.6-0.2c0.2,0,0.5-0.1,0.7-0.1s0.5,0,0.7,0c0.2,0,0.4,0,0.6,0h0.9c0.4,0,0.7,0,1-0.1c0.3,0,0.5-0.1,0.6-0.2
			s0.3-0.2,0.3-0.4c0.1-0.1,0.1-0.3,0.1-0.6v-0.9h-5.5v-3.6h13.8V903.7z M84.3,902.4c0,0.5,0.2,0.9,0.5,1.1c0.3,0.2,0.7,0.4,1.2,0.4
			c0.6,0,1-0.1,1.2-0.4c0.2-0.2,0.4-0.6,0.4-1.2v-0.7h-3.3V902.4z"/>
		<path fill="#FFFFFF" d="M63.2,827.7c0.4,0,0.8-0.1,1.1-0.3c0.3-0.2,0.4-0.4,0.4-0.8c0-0.4-0.1-0.7-0.4-0.9
			c-0.3-0.2-0.5-0.3-0.8-0.3c-0.5,0-0.8,0.1-1.1,0.4s-0.5,0.7-0.7,1.1s-0.4,0.9-0.6,1.4c-0.2,0.5-0.5,1-0.8,1.4
			c-0.3,0.4-0.7,0.8-1.3,1.1c-0.5,0.3-1.2,0.4-2,0.4c-1.5,0-2.5-0.4-3.2-1.3c-0.7-0.8-1-2.1-1-3.6c0-0.8,0.1-1.4,0.2-2
			c0.1-0.6,0.3-1.1,0.6-1.5c0.3-0.4,0.7-0.7,1.2-0.9s1.1-0.3,1.8-0.3h0.5v3.5h-0.3c-0.6,0-1,0.1-1.2,0.3c-0.2,0.2-0.4,0.5-0.4,0.9
			c0,0.4,0.1,0.7,0.4,0.9c0.3,0.2,0.6,0.3,0.9,0.3c0.5,0,0.8-0.1,1.1-0.4c0.3-0.3,0.5-0.6,0.7-1c0.2-0.4,0.4-0.9,0.6-1.4
			c0.2-0.5,0.4-0.9,0.8-1.4c0.3-0.4,0.7-0.8,1.2-1c0.5-0.3,1.2-0.4,2-0.4c1.4,0,2.5,0.4,3.2,1.1c0.7,0.7,1.1,1.9,1.1,3.4
			c0,1.6-0.3,2.7-1,3.4s-1.8,1.1-3.2,1.1v-3.4H63.2z"/>
		<path fill="#FFFFFF" d="M66.9,841h-2.9v-4.6h-2.4v4.3h-2.8v-4.3H56v4.8H53v-8.4h13.8V841z"/>
		<path fill="#FFFFFF" d="M66.9,848.1c0,0.7-0.1,1.3-0.3,1.8c-0.2,0.5-0.4,0.9-0.8,1.2s-0.7,0.5-1.2,0.7s-0.9,0.2-1.5,0.2
			c-0.9,0-1.7-0.2-2.2-0.6c-0.6-0.4-0.9-1-1-1.8h0c-0.1,0.9-0.4,1.5-0.9,1.8s-1.3,0.5-2.2,0.5h-1.2c-0.2,0-0.4,0-0.6,0s-0.4,0-0.6,0
			c-0.2,0-0.3,0-0.5,0.1c-0.1,0-0.3,0.1-0.3,0.1c-0.1,0.1-0.2,0.1-0.2,0.2c-0.1,0.1-0.1,0.1-0.2,0.3H53v-3.8
			c0.2-0.1,0.4-0.2,0.6-0.2c0.2,0,0.5-0.1,0.7-0.1s0.5,0,0.7,0c0.2,0,0.4,0,0.6,0h0.9c0.4,0,0.7,0,1-0.1c0.3,0,0.5-0.1,0.6-0.2
			s0.3-0.2,0.3-0.4c0.1-0.1,0.1-0.3,0.1-0.6v-0.9H53v-3.6h13.8V848.1z M61,846.8c0,0.5,0.2,0.9,0.5,1.1c0.3,0.2,0.7,0.4,1.2,0.4
			c0.6,0,1-0.1,1.2-0.4c0.2-0.2,0.4-0.6,0.4-1.2v-0.7H61V846.8z"/>
		<path fill="#FFFFFF" d="M66.9,856.3l-10.4,1.5v0l10.4,1.5v3.8l-13.8-3v-4.7l13.8-2.9V856.3z"/>
		<path fill="#FFFFFF" d="M66.9,867.1H53v-3.6h13.8V867.1z"/>
		<path fill="#FFFFFF" d="M64.3,874c0.3-0.2,0.4-0.4,0.4-0.8c0-0.3-0.1-0.5-0.2-0.6c-0.1-0.2-0.4-0.3-0.8-0.4s-0.8-0.1-1.5-0.2
			c-0.6,0-1.4,0-2.3,0s-1.7,0-2.3,0c-0.6,0-1.1,0.1-1.5,0.2s-0.6,0.2-0.8,0.4c-0.1,0.2-0.2,0.4-0.2,0.6c0,0.2,0.1,0.4,0.2,0.5
			c0.1,0.1,0.3,0.3,0.6,0.3c0.3,0.1,0.6,0.1,1,0.2c0.4,0,1,0,1.6,0v3.5h-1c-1,0-1.8-0.1-2.4-0.4s-1.1-0.6-1.5-1
			c-0.4-0.4-0.6-0.9-0.7-1.5c-0.1-0.5-0.2-1.1-0.2-1.7c0-1,0.1-1.8,0.4-2.5c0.2-0.6,0.7-1.2,1.2-1.5c0.6-0.4,1.3-0.6,2.2-0.7
			c0.9-0.1,2-0.2,3.3-0.2c1.3,0,2.4,0.1,3.4,0.2c0.9,0.2,1.7,0.4,2.2,0.8c0.6,0.4,1,0.9,1.2,1.5c0.3,0.6,0.4,1.4,0.4,2.3
			c0,0.8-0.1,1.5-0.3,2.1c-0.2,0.6-0.5,1-0.9,1.4c-0.4,0.4-0.8,0.6-1.4,0.8c-0.5,0.2-1.1,0.2-1.8,0.2h-0.9v-3.5h0.8
			C63.4,874.2,64,874.1,64.3,874z"/>
		<path fill="#FFFFFF" d="M66.9,887.3h-2.9v-4.6h-2.4v4.3h-2.8v-4.3H56v4.8H53v-8.4h13.8V887.3z"/>
	</g>
	<g>
		<path fill="#FFFFFF" d="M653.2,1062.3h-6.9v3h6.9v4.9h-18.9v-4.9h7.8v-3h-7.8v-4.9h18.9V1062.3z"/>
		<path fill="#FFFFFF" d="M648.2,1072.4c1.2,0.2,2.3,0.6,3,1.1s1.4,1.2,1.7,2.1s0.5,1.9,0.5,3.2c0,1.2-0.2,2.3-0.5,3.2
			s-0.9,1.6-1.7,2.1s-1.8,0.9-3,1.1c-1.2,0.2-2.7,0.3-4.5,0.3c-1.8,0-3.3-0.1-4.5-0.3c-1.2-0.2-2.3-0.6-3-1.1s-1.3-1.2-1.7-2.1
			c-0.3-0.9-0.5-1.9-0.5-3.2c0-1.3,0.2-2.3,0.5-3.2c0.3-0.9,0.9-1.6,1.7-2.1s1.8-0.9,3-1.1c1.2-0.2,2.7-0.3,4.5-0.3
			C645.5,1072,647,1072.1,648.2,1072.4z M640.6,1077.2c-0.8,0-1.5,0.1-2,0.2c-0.5,0.1-0.8,0.3-1,0.5c-0.2,0.2-0.3,0.5-0.3,0.9
			c0,0.4,0.1,0.7,0.3,0.9c0.2,0.2,0.5,0.4,1,0.5s1.2,0.2,2,0.2s1.9,0.1,3.2,0.1c1.3,0,2.3,0,3.2-0.1c0.8,0,1.5-0.1,2-0.2
			c0.5-0.1,0.8-0.3,1-0.5c0.2-0.2,0.3-0.5,0.3-0.9c0-0.4-0.1-0.7-0.3-0.9c-0.2-0.2-0.5-0.4-1-0.5c-0.5-0.1-1.2-0.2-2-0.2
			c-0.8,0-1.9-0.1-3.2-0.1C642.5,1077.1,641.4,1077.1,640.6,1077.2z"/>
		<path fill="#FFFFFF" d="M653.2,1094.1l-11.2,2v0.1l11.2,2v7h-18.9v-4.6h14.1v-0.1l-14.1-2.6v-3.5l14.1-2.6v-0.1h-14.1v-4.6h18.9
			V1094.1z"/>
		<path fill="#FFFFFF" d="M653.2,1118.5h-4v-6.3h-3.2v5.9h-3.9v-5.9h-3.8v6.5h-4v-11.4h18.9V1118.5z"/>
	</g>
	<g>
		<polygon stroke="#FFFFFF" stroke-miterlimit="10" points="64.5,748.6 97.7,763.6 64.5,778.6 		"/>
		<g>
			<path d="M59.6,732.4h-2.8V728h-2.3v4.1h-2.7V728h-2.6v4.6h-2.8v-8h13.2V732.4z"/>
			<path d="M59.6,737.6l-8.1,2.2v0h8.1v3.2H46.4v-3.8l8.2-2.3v0h-8.2v-3.2h13.2V737.6z"/>
			<path d="M56.7,743.9h2.9v8.6h-2.9v-2.6H46.4v-3.4h10.3V743.9z"/>
			<path d="M59.6,758.7c0,0.7-0.1,1.2-0.3,1.7s-0.4,0.8-0.7,1.1c-0.3,0.3-0.7,0.5-1.1,0.6s-0.9,0.2-1.4,0.2c-0.9,0-1.6-0.2-2.1-0.5
				c-0.5-0.4-0.9-0.9-1-1.7h0c-0.1,0.8-0.4,1.4-0.9,1.7c-0.5,0.3-1.2,0.5-2.1,0.5h-1.1c-0.2,0-0.4,0-0.5,0s-0.4,0-0.5,0
				c-0.2,0-0.3,0-0.5,0.1c-0.1,0-0.2,0.1-0.3,0.1c-0.1,0-0.1,0.1-0.2,0.1c-0.1,0-0.1,0.1-0.2,0.2h-0.2v-3.7c0.2-0.1,0.4-0.2,0.6-0.2
				c0.2,0,0.5-0.1,0.7-0.1c0.2,0,0.5,0,0.7,0c0.2,0,0.4,0,0.5,0h0.9c0.4,0,0.7,0,0.9-0.1c0.2,0,0.4-0.1,0.6-0.2
				c0.1-0.1,0.2-0.2,0.3-0.4c0.1-0.1,0.1-0.3,0.1-0.5v-0.9h-5.3v-3.4h13.2V758.7z M54,757.4c0,0.5,0.1,0.9,0.4,1.1s0.7,0.4,1.1,0.4
				c0.6,0,1-0.1,1.2-0.3s0.4-0.6,0.4-1.1v-0.7H54V757.4z"/>
			<path d="M59.6,770.4l-13.2,3.2V770l2.3-0.4v-2.7l-2.3-0.4v-3.6l13.2,3.2V770.4z M56.9,768.2l-5.6-0.9v1.9L56.9,768.2L56.9,768.2z
				"/>
			<path d="M59.6,778.1l-8.1,2.2v0h8.1v3.2H46.4v-3.8l8.2-2.3v0h-8.2v-3.2h13.2V778.1z"/>
			<path d="M57.1,790.2c0.3-0.1,0.4-0.4,0.4-0.7c0-0.3-0.1-0.5-0.2-0.6c-0.1-0.2-0.4-0.3-0.7-0.4c-0.3-0.1-0.8-0.1-1.4-0.2
				c-0.6,0-1.3,0-2.2,0s-1.6,0-2.2,0c-0.6,0-1.1,0.1-1.4,0.2c-0.3,0.1-0.6,0.2-0.7,0.4s-0.2,0.4-0.2,0.6c0,0.2,0.1,0.4,0.2,0.5
				c0.1,0.1,0.3,0.2,0.5,0.3c0.2,0.1,0.6,0.1,1,0.2s0.9,0,1.6,0v3.3h-1c-0.9,0-1.7-0.1-2.3-0.4c-0.6-0.2-1.1-0.6-1.4-1
				c-0.3-0.4-0.6-0.9-0.7-1.4c-0.1-0.5-0.2-1.1-0.2-1.6c0-1,0.1-1.8,0.4-2.4c0.2-0.6,0.6-1.1,1.2-1.4c0.5-0.3,1.3-0.6,2.1-0.7
				s1.9-0.2,3.2-0.2c1.3,0,2.3,0.1,3.2,0.2c0.9,0.2,1.6,0.4,2.1,0.8c0.5,0.4,0.9,0.9,1.2,1.5s0.4,1.4,0.4,2.2c0,0.8-0.1,1.4-0.3,2
				s-0.5,1-0.8,1.3c-0.4,0.3-0.8,0.6-1.3,0.7s-1.1,0.2-1.7,0.2h-0.8v-3.3h0.7C56.4,790.5,56.9,790.4,57.1,790.2z"/>
			<path d="M59.6,802.9h-2.8v-4.4h-2.3v4.1h-2.7v-4.1h-2.6v4.6h-2.8v-8h13.2V802.9z"/>
		</g>
	</g>
	<g>
		<path fill="#FFFFFF" d="M546.4,1152.7h-4v-6.3h-3.2v5.9h-3.9v-5.9h-3.8v6.5h-4v-11.4h18.9V1152.7z"/>
		<path fill="#FFFFFF" d="M546.4,1159.6h-14.9v6.1h-4v-11h18.9V1159.6z"/>
		<path fill="#FFFFFF" d="M546.4,1178.1h-4v-6.3h-3.2v5.9h-3.9v-5.9h-3.8v6.5h-4v-11.4h18.9V1178.1z"/>
		<path fill="#FFFFFF" d="M542.8,1187.4c0.4-0.2,0.6-0.6,0.6-1c0-0.4-0.1-0.7-0.3-0.9c-0.2-0.2-0.5-0.4-1-0.5
			c-0.5-0.1-1.2-0.2-2-0.2c-0.8,0-1.9-0.1-3.2-0.1c-1.3,0-2.3,0-3.2,0.1c-0.8,0-1.5,0.1-2,0.2c-0.5,0.1-0.8,0.3-1,0.5
			c-0.2,0.2-0.3,0.5-0.3,0.9c0,0.3,0.1,0.5,0.2,0.7c0.1,0.2,0.4,0.3,0.8,0.4c0.4,0.1,0.8,0.2,1.4,0.2c0.6,0,1.3,0.1,2.2,0.1v4.8
			h-1.4c-1.3,0-2.4-0.2-3.3-0.5s-1.5-0.8-2-1.4c-0.5-0.6-0.8-1.2-1-2c-0.2-0.8-0.3-1.5-0.3-2.3c0-1.4,0.2-2.5,0.5-3.4
			c0.3-0.9,0.9-1.6,1.7-2.1c0.8-0.5,1.8-0.8,3-1c1.2-0.2,2.7-0.3,4.5-0.3c1.8,0,3.3,0.1,4.6,0.3c1.3,0.2,2.3,0.6,3,1.1
			c0.8,0.5,1.3,1.2,1.7,2.1s0.5,1.9,0.5,3.2c0,1.1-0.1,2.1-0.4,2.8c-0.3,0.8-0.7,1.4-1.2,1.9c-0.5,0.5-1.1,0.8-1.9,1.1
			c-0.7,0.2-1.6,0.3-2.5,0.3h-1.2v-4.8h1.1C541.7,1187.7,542.5,1187.6,542.8,1187.4z"/>
		<path fill="#FFFFFF" d="M542.2,1193.2h4.2v12.3h-4.2v-3.7h-14.7v-4.9h14.7V1193.2z"/>
		<path fill="#FFFFFF" d="M546.4,1214.2c0,0.9-0.1,1.7-0.4,2.4c-0.2,0.7-0.6,1.2-1,1.6s-1,0.7-1.6,0.9c-0.6,0.2-1.3,0.3-2,0.3
			c-1.3,0-2.3-0.3-3.1-0.8c-0.8-0.5-1.3-1.3-1.4-2.5h-0.1c-0.1,1.2-0.5,2-1.2,2.4c-0.7,0.4-1.7,0.7-3,0.7H531c-0.2,0-0.5,0-0.8,0
			c-0.3,0-0.5,0-0.8,0c-0.2,0-0.5,0-0.6,0.1c-0.2,0-0.3,0.1-0.4,0.1c-0.1,0.1-0.2,0.1-0.3,0.2c-0.1,0.1-0.2,0.2-0.3,0.3h-0.3v-5.2
			c0.2-0.1,0.5-0.2,0.9-0.3s0.7-0.1,1-0.1c0.3,0,0.7,0,1-0.1s0.6,0,0.8,0h1.3c0.5,0,1,0,1.3-0.1c0.4-0.1,0.6-0.1,0.8-0.3
			s0.3-0.3,0.4-0.5c0.1-0.2,0.1-0.5,0.1-0.8v-1.3h-7.6v-4.9h18.9V1214.2z M538.4,1212.4c0,0.7,0.2,1.2,0.6,1.6
			c0.4,0.3,1,0.5,1.6,0.5c0.8,0,1.4-0.2,1.7-0.5s0.5-0.9,0.5-1.6v-1h-4.4V1212.4z"/>
		<path fill="#FFFFFF" d="M541.5,1221.5c1.2,0.2,2.3,0.6,3,1.1s1.4,1.2,1.7,2.1s0.5,1.9,0.5,3.2c0,1.2-0.2,2.3-0.5,3.2
			s-0.9,1.6-1.7,2.1s-1.8,0.9-3,1.1c-1.2,0.2-2.7,0.3-4.5,0.3c-1.8,0-3.3-0.1-4.5-0.3c-1.2-0.2-2.3-0.6-3-1.1s-1.3-1.2-1.7-2.1
			c-0.3-0.9-0.5-1.9-0.5-3.2c0-1.3,0.2-2.3,0.5-3.2c0.3-0.9,0.9-1.6,1.7-2.1s1.8-0.9,3-1.1c1.2-0.2,2.7-0.3,4.5-0.3
			C538.7,1221.2,540.2,1221.3,541.5,1221.5z M533.8,1226.3c-0.8,0-1.5,0.1-2,0.2c-0.5,0.1-0.8,0.3-1,0.5c-0.2,0.2-0.3,0.5-0.3,0.9
			c0,0.4,0.1,0.7,0.3,0.9c0.2,0.2,0.5,0.4,1,0.5s1.2,0.2,2,0.2s1.9,0.1,3.2,0.1c1.3,0,2.3,0,3.2-0.1c0.8,0,1.5-0.1,2-0.2
			c0.5-0.1,0.8-0.3,1-0.5c0.2-0.2,0.3-0.5,0.3-0.9c0-0.4-0.1-0.7-0.3-0.9c-0.2-0.2-0.5-0.4-1-0.5c-0.5-0.1-1.2-0.2-2-0.2
			c-0.8,0-1.9-0.1-3.2-0.1C535.7,1226.2,534.6,1226.3,533.8,1226.3z"/>
		<path fill="#FFFFFF" d="M546.4,1241.9l-11.6,3.2v0.1h11.6v4.6h-18.9v-5.4l11.7-3.3v-0.1h-11.7v-4.6h18.9V1241.9z"/>
		<path fill="#FFFFFF" d="M546.4,1256.8h-18.9v-4.9h18.9V1256.8z"/>
		<path fill="#FFFFFF" d="M542.8,1266.1c0.4-0.2,0.6-0.6,0.6-1c0-0.4-0.1-0.7-0.3-0.9c-0.2-0.2-0.5-0.4-1-0.5
			c-0.5-0.1-1.2-0.2-2-0.2c-0.8,0-1.9-0.1-3.2-0.1c-1.3,0-2.3,0-3.2,0.1c-0.8,0-1.5,0.1-2,0.2c-0.5,0.1-0.8,0.3-1,0.5
			c-0.2,0.2-0.3,0.5-0.3,0.9c0,0.3,0.1,0.5,0.2,0.7c0.1,0.2,0.4,0.3,0.8,0.4c0.4,0.1,0.8,0.2,1.4,0.2c0.6,0,1.3,0.1,2.2,0.1v4.8
			h-1.4c-1.3,0-2.4-0.2-3.3-0.5s-1.5-0.8-2-1.4c-0.5-0.6-0.8-1.2-1-2c-0.2-0.8-0.3-1.5-0.3-2.3c0-1.4,0.2-2.5,0.5-3.4
			c0.3-0.9,0.9-1.6,1.7-2.1c0.8-0.5,1.8-0.8,3-1c1.2-0.2,2.7-0.3,4.5-0.3c1.8,0,3.3,0.1,4.6,0.3c1.3,0.2,2.3,0.6,3,1.1
			c0.8,0.5,1.3,1.2,1.7,2.1s0.5,1.9,0.5,3.2c0,1.1-0.1,2.1-0.4,2.8c-0.3,0.8-0.7,1.4-1.2,1.9c-0.5,0.5-1.1,0.8-1.9,1.1
			c-0.7,0.2-1.6,0.3-2.5,0.3h-1.2v-4.8h1.1C541.7,1266.5,542.5,1266.4,542.8,1266.1z"/>
		<path fill="#FFFFFF" d="M541.4,1280.5c0.6,0,1-0.1,1.4-0.3c0.4-0.2,0.6-0.6,0.6-1.1c0-0.5-0.2-0.9-0.5-1.2s-0.7-0.4-1.1-0.4
			c-0.6,0-1.1,0.2-1.5,0.6s-0.7,0.9-0.9,1.5c-0.3,0.6-0.5,1.2-0.8,1.9c-0.3,0.7-0.6,1.3-1.1,1.9c-0.4,0.6-1,1.1-1.7,1.5
			c-0.7,0.4-1.6,0.6-2.8,0.6c-2,0-3.5-0.6-4.4-1.7s-1.4-2.8-1.4-5c0-1,0.1-1.9,0.3-2.7c0.2-0.8,0.5-1.4,0.9-2c0.4-0.5,1-0.9,1.6-1.2
			c0.7-0.3,1.5-0.4,2.5-0.4h0.7v4.8h-0.4c-0.8,0-1.4,0.1-1.7,0.4c-0.3,0.3-0.5,0.7-0.5,1.2c0,0.5,0.2,0.9,0.5,1.2
			c0.4,0.3,0.8,0.4,1.3,0.4c0.6,0,1.1-0.2,1.5-0.6c0.4-0.4,0.7-0.9,0.9-1.4c0.3-0.6,0.5-1.2,0.8-1.9s0.6-1.3,1-1.9s1-1,1.7-1.4
			c0.7-0.4,1.6-0.6,2.7-0.6c1.9,0,3.4,0.5,4.4,1.5c1,1,1.5,2.6,1.5,4.7c0,2.1-0.5,3.7-1.4,4.7s-2.4,1.4-4.4,1.4v-4.6H541.4z"/>
	</g>
	<g>
		<path fill="#FFFFFF" d="M468.2,1186.2h4.2v12.3h-4.2v-3.7h-14.7v-4.9h14.7V1186.2z"/>
		<path fill="#FFFFFF" d="M467.5,1199.3c1.2,0.2,2.3,0.6,3,1.1s1.4,1.2,1.7,2.1s0.5,1.9,0.5,3.2c0,1.2-0.2,2.3-0.5,3.2
			s-0.9,1.6-1.7,2.1s-1.8,0.9-3,1.1c-1.2,0.2-2.7,0.3-4.5,0.3c-1.8,0-3.3-0.1-4.5-0.3c-1.2-0.2-2.3-0.6-3-1.1s-1.3-1.2-1.7-2.1
			c-0.3-0.9-0.5-1.9-0.5-3.2c0-1.3,0.2-2.3,0.5-3.2c0.3-0.9,0.9-1.6,1.7-2.1s1.8-0.9,3-1.1c1.2-0.2,2.7-0.3,4.5-0.3
			C464.7,1199,466.2,1199.1,467.5,1199.3z M459.8,1204.1c-0.8,0-1.5,0.1-2,0.2c-0.5,0.1-0.8,0.3-1,0.5c-0.2,0.2-0.3,0.5-0.3,0.9
			c0,0.4,0.1,0.7,0.3,0.9c0.2,0.2,0.5,0.4,1,0.5s1.2,0.2,2,0.2s1.9,0.1,3.2,0.1c1.3,0,2.3,0,3.2-0.1c0.8,0,1.5-0.1,2-0.2
			c0.5-0.1,0.8-0.3,1-0.5c0.2-0.2,0.3-0.5,0.3-0.9c0-0.4-0.1-0.7-0.3-0.9c-0.2-0.2-0.5-0.4-1-0.5c-0.5-0.1-1.2-0.2-2-0.2
			c-0.8,0-1.9-0.1-3.2-0.1C461.7,1204.1,460.6,1204.1,459.8,1204.1z"/>
		<path fill="#FFFFFF" d="M472.4,1212v5.3l-6.6,1.8v0.1l6.6,1.9v5.4l-11.4-4.8h-7.4v-4.9h7.4L472.4,1212z"/>
		<path fill="#FFFFFF" d="M467.4,1234.6c0.6,0,1-0.1,1.4-0.3c0.4-0.2,0.6-0.6,0.6-1.1c0-0.5-0.2-0.9-0.5-1.2s-0.7-0.4-1.1-0.4
			c-0.6,0-1.1,0.2-1.5,0.6s-0.7,0.9-0.9,1.5c-0.3,0.6-0.5,1.2-0.8,1.9c-0.3,0.7-0.6,1.3-1.1,1.9c-0.4,0.6-1,1.1-1.7,1.5
			c-0.7,0.4-1.6,0.6-2.8,0.6c-2,0-3.5-0.6-4.4-1.7s-1.4-2.8-1.4-5c0-1,0.1-1.9,0.3-2.7c0.2-0.8,0.5-1.4,0.9-2c0.4-0.5,1-0.9,1.6-1.2
			c0.7-0.3,1.5-0.4,2.5-0.4h0.7v4.8h-0.4c-0.8,0-1.4,0.1-1.7,0.4c-0.3,0.3-0.5,0.7-0.5,1.2c0,0.5,0.2,0.9,0.5,1.2
			c0.4,0.3,0.8,0.4,1.3,0.4c0.6,0,1.1-0.2,1.5-0.6c0.4-0.4,0.7-0.9,0.9-1.4c0.3-0.6,0.5-1.2,0.8-1.9s0.6-1.3,1-1.9s1-1,1.7-1.4
			c0.7-0.4,1.6-0.6,2.7-0.6c1.9,0,3.4,0.5,4.4,1.5c1,1,1.5,2.6,1.5,4.7c0,2.1-0.5,3.7-1.4,4.7s-2.4,1.4-4.4,1.4v-4.6H467.4z"/>
	</g>
	<g>
		<path d="M354,1195.4c0,1.4-0.3,2.4-1,3.1c-0.7,0.7-1.6,1-2.7,1c-0.4,0-0.8,0-1.2-0.1s-0.7-0.2-1-0.4c-0.3-0.2-0.6-0.4-0.8-0.7
			c-0.2-0.3-0.4-0.7-0.4-1.1h0c0,0.5-0.2,0.9-0.4,1.3c-0.2,0.4-0.5,0.6-0.8,0.9s-0.7,0.4-1.1,0.5c-0.4,0.1-0.8,0.2-1.2,0.2
			c-0.6,0-1.2-0.1-1.8-0.3c-0.5-0.2-1-0.4-1.4-0.8c-0.4-0.4-0.7-0.8-0.9-1.4c-0.2-0.6-0.3-1.3-0.3-2.1v-5.9H354V1195.4z
			 M341.7,1194.5c0,0.4,0.2,0.7,0.5,1s0.8,0.4,1.4,0.4c0.6,0,1-0.1,1.4-0.4s0.5-0.6,0.5-1v-1.1h-3.7V1194.5z M348.1,1194.3
			c0,0.4,0.2,0.7,0.5,0.9c0.3,0.2,0.7,0.3,1.1,0.3c0.4,0,0.8-0.1,1.1-0.3c0.3-0.2,0.5-0.5,0.5-0.9v-1h-3.1V1194.3z"/>
		<path d="M354,1208.9l-15.1,3.7v-4.2l2.6-0.4v-3.1l-2.6-0.4v-4.1l15.1,3.6V1208.9z M350.9,1206.4l-6.4-1.1v2.2L350.9,1206.4
			L350.9,1206.4z"/>
		<path d="M354,1219.3c0,1.4-0.3,2.4-1,3.1c-0.7,0.7-1.6,1-2.7,1c-0.4,0-0.8,0-1.2-0.1s-0.7-0.2-1-0.4c-0.3-0.2-0.6-0.4-0.8-0.7
			c-0.2-0.3-0.4-0.7-0.4-1.1h0c0,0.5-0.2,0.9-0.4,1.3c-0.2,0.4-0.5,0.6-0.8,0.9s-0.7,0.4-1.1,0.5c-0.4,0.1-0.8,0.2-1.2,0.2
			c-0.6,0-1.2-0.1-1.8-0.3c-0.5-0.2-1-0.4-1.4-0.8c-0.4-0.4-0.7-0.8-0.9-1.4c-0.2-0.6-0.3-1.3-0.3-2.1v-5.9H354V1219.3z
			 M341.7,1218.4c0,0.4,0.2,0.7,0.5,1s0.8,0.4,1.4,0.4c0.6,0,1-0.1,1.4-0.4s0.5-0.6,0.5-1v-1.1h-3.7V1218.4z M348.1,1218.2
			c0,0.4,0.2,0.7,0.5,0.9c0.3,0.2,0.7,0.3,1.1,0.3c0.4,0,0.8-0.1,1.1-0.3c0.3-0.2,0.5-0.5,0.5-0.9v-1h-3.1V1218.2z"/>
		<path d="M354,1224.2v4.2l-5.3,1.5v0l5.3,1.5v4.3l-9.2-3.8h-5.9v-3.9h5.9L354,1224.2z"/>
	</g>
	<g>
		<path d="M240.8,1181.2c0,0.7-0.1,1.4-0.4,1.9c-0.2,0.5-0.6,1-1,1.4c-0.4,0.4-0.9,0.6-1.5,0.8c-0.6,0.2-1.2,0.3-1.8,0.3
			c-1.6,0-2.7-0.4-3.5-1.3s-1.2-2.1-1.2-3.7v-1.4h-5.8v-3.9h15.1V1181.2z M234.3,1179.9c0,0.5,0.1,0.9,0.4,1.1
			c0.3,0.3,0.8,0.4,1.4,0.4c1.2,0,1.8-0.5,1.8-1.5v-0.7h-3.7V1179.9z"/>
		<path d="M240.8,1190.7h-5.5v2.4h5.5v3.9h-15.1v-3.9h6.2v-2.4h-6.2v-3.9h15.1V1190.7z"/>
		<path d="M240.8,1206.3l-15.1,3.7v-4.2l2.6-0.4v-3.1l-2.6-0.4v-4.1l15.1,3.6V1206.3z M237.7,1203.8l-6.4-1.1v2.2L237.7,1203.8
			L237.7,1203.8z"/>
		<path d="M240.8,1216.8c0,0.7-0.1,1.4-0.3,1.9c-0.2,0.5-0.5,1-0.8,1.3s-0.8,0.6-1.3,0.7c-0.5,0.1-1,0.2-1.6,0.2
			c-1,0-1.8-0.2-2.5-0.6c-0.6-0.4-1-1.1-1.1-2h0c-0.1,0.9-0.4,1.6-1,1.9c-0.6,0.4-1.4,0.5-2.4,0.5h-1.3c-0.2,0-0.4,0-0.6,0
			s-0.4,0-0.6,0c-0.2,0-0.4,0-0.5,0.1c-0.2,0-0.3,0.1-0.4,0.1c-0.1,0.1-0.2,0.1-0.2,0.2c-0.1,0.1-0.2,0.1-0.2,0.3h-0.2v-4.2
			c0.2-0.1,0.4-0.2,0.7-0.2c0.3,0,0.5-0.1,0.8-0.1c0.3,0,0.5,0,0.8,0c0.2,0,0.4,0,0.6,0h1c0.4,0,0.8,0,1.1-0.1
			c0.3,0,0.5-0.1,0.7-0.2s0.3-0.2,0.3-0.4c0.1-0.2,0.1-0.4,0.1-0.6v-1h-6v-3.9h15.1V1216.8z M234.4,1215.4c0,0.6,0.2,1,0.5,1.2
			c0.3,0.3,0.8,0.4,1.3,0.4c0.6,0,1.1-0.1,1.4-0.4c0.3-0.3,0.4-0.7,0.4-1.3v-0.8h-3.6V1215.4z"/>
		<path d="M240.8,1228.3l-8.9,1.6v0l8.9,1.6v5.6h-15.1v-3.7H237v0l-11.2-2.1v-2.8l11.2-2.1v0h-11.2v-3.7h15.1V1228.3z"/>
		<path d="M240.8,1246.2l-15.1,3.7v-4.2l2.6-0.4v-3.1l-2.6-0.4v-4.1l15.1,3.6V1246.2z M237.7,1243.8l-6.4-1.1v2.2L237.7,1243.8
			L237.7,1243.8z"/>
		<path d="M238,1256.4c0.3-0.2,0.5-0.4,0.5-0.8c0-0.3-0.1-0.5-0.2-0.7c-0.2-0.2-0.4-0.3-0.8-0.4s-0.9-0.2-1.6-0.2
			c-0.7,0-1.5,0-2.5,0c-1,0-1.9,0-2.5,0s-1.2,0.1-1.6,0.2c-0.4,0.1-0.7,0.2-0.8,0.4c-0.2,0.2-0.2,0.4-0.2,0.7c0,0.2,0.1,0.4,0.2,0.6
			c0.1,0.2,0.3,0.3,0.6,0.4c0.3,0.1,0.7,0.1,1.1,0.2s1.1,0.1,1.8,0.1v3.8h-1.1c-1.1,0-1.9-0.1-2.6-0.4c-0.7-0.3-1.2-0.7-1.6-1.1
			s-0.6-1-0.8-1.6c-0.1-0.6-0.2-1.2-0.2-1.8c0-1.1,0.1-2,0.4-2.7c0.3-0.7,0.7-1.3,1.3-1.6c0.6-0.4,1.4-0.7,2.4-0.8
			c1-0.1,2.2-0.2,3.6-0.2c1.4,0,2.7,0.1,3.7,0.3c1,0.2,1.8,0.5,2.4,0.9c0.6,0.4,1.1,1,1.3,1.7s0.4,1.5,0.4,2.6
			c0,0.9-0.1,1.6-0.3,2.3s-0.5,1.1-1,1.5c-0.4,0.4-0.9,0.7-1.5,0.8c-0.6,0.2-1.2,0.3-2,0.3h-1v-3.8h0.8
			C237.1,1256.6,237.7,1256.5,238,1256.4z"/>
		<path d="M240.8,1260.8v4.2l-5.3,1.5v0l5.3,1.5v4.3l-9.2-3.8h-5.9v-3.9h5.9L240.8,1260.8z"/>
	</g>
	<g>
		<path d="M115.3,974.7c1,0.2,1.8,0.5,2.4,0.9c0.6,0.4,1.1,1,1.4,1.7c0.3,0.7,0.4,1.5,0.4,2.5c0,1-0.1,1.8-0.4,2.5s-0.7,1.2-1.4,1.7
			c-0.6,0.4-1.4,0.7-2.4,0.9s-2.2,0.3-3.6,0.3s-2.6-0.1-3.6-0.3c-1-0.2-1.8-0.5-2.4-0.9c-0.6-0.4-1.1-1-1.3-1.7s-0.4-1.5-0.4-2.5
			c0-1,0.1-1.8,0.4-2.5c0.3-0.7,0.7-1.2,1.3-1.7c0.6-0.4,1.4-0.7,2.4-0.9c1-0.2,2.2-0.3,3.6-0.3S114.3,974.5,115.3,974.7z
			 M109.2,978.5c-0.7,0-1.2,0.1-1.6,0.2c-0.4,0.1-0.7,0.2-0.8,0.4c-0.2,0.2-0.2,0.4-0.2,0.7s0.1,0.5,0.2,0.7
			c0.2,0.2,0.4,0.3,0.8,0.4c0.4,0.1,0.9,0.2,1.6,0.2s1.5,0,2.5,0c1,0,1.9,0,2.5,0c0.7,0,1.2-0.1,1.6-0.2s0.7-0.2,0.8-0.4
			c0.2-0.2,0.2-0.4,0.2-0.7s-0.1-0.5-0.2-0.7c-0.2-0.2-0.4-0.3-0.8-0.4s-0.9-0.2-1.6-0.2c-0.7,0-1.5,0-2.5,0
			C110.7,978.5,109.8,978.5,109.2,978.5z"/>
		<path d="M119.2,992.4c0,0.7-0.1,1.4-0.4,1.9c-0.2,0.5-0.6,1-1,1.4c-0.4,0.4-0.9,0.6-1.5,0.8c-0.6,0.2-1.2,0.3-1.8,0.3
			c-1.6,0-2.7-0.4-3.5-1.3s-1.2-2.1-1.2-3.7v-1.4h-5.8v-3.9h15.1V992.4z M112.7,991.1c0,0.5,0.1,0.9,0.4,1.1
			c0.3,0.3,0.8,0.4,1.4,0.4c1.2,0,1.8-0.5,1.8-1.5v-0.7h-3.7V991.1z"/>
		<path d="M115.9,997h3.3v9.8h-3.3v-3h-11.8v-3.9h11.8V997z"/>
		<path d="M119.2,1011.5h-15.1v-3.9h15.1V1011.5z"/>
		<path d="M116.4,1019c0.3-0.2,0.5-0.4,0.5-0.8c0-0.3-0.1-0.5-0.2-0.7c-0.2-0.2-0.4-0.3-0.8-0.4s-0.9-0.2-1.6-0.2
			c-0.7,0-1.5,0-2.5,0c-1,0-1.9,0-2.5,0s-1.2,0.1-1.6,0.2c-0.4,0.1-0.7,0.2-0.8,0.4c-0.2,0.2-0.2,0.4-0.2,0.7c0,0.2,0.1,0.4,0.2,0.6
			c0.1,0.2,0.3,0.3,0.6,0.4c0.3,0.1,0.7,0.1,1.1,0.2s1.1,0.1,1.8,0.1v3.8h-1.1c-1.1,0-1.9-0.1-2.6-0.4c-0.7-0.3-1.2-0.7-1.6-1.1
			s-0.6-1-0.8-1.6c-0.1-0.6-0.2-1.2-0.2-1.8c0-1.1,0.1-2,0.4-2.7c0.3-0.7,0.7-1.3,1.3-1.6c0.6-0.4,1.4-0.7,2.4-0.8
			c1-0.1,2.2-0.2,3.6-0.2c1.4,0,2.7,0.1,3.7,0.3c1,0.2,1.8,0.5,2.4,0.9c0.6,0.4,1.1,1,1.3,1.7s0.4,1.5,0.4,2.6
			c0,0.9-0.1,1.6-0.3,2.3s-0.5,1.1-1,1.5c-0.4,0.4-0.9,0.7-1.5,0.8c-0.6,0.2-1.2,0.3-2,0.3h-1v-3.8h0.8
			C115.5,1019.3,116.1,1019.2,116.4,1019z"/>
		<path d="M119.2,1032l-15.1,3.7v-4.2l2.6-0.4v-3.1l-2.6-0.4v-4.1l15.1,3.6V1032z M116.2,1029.5l-6.4-1.1v2.2L116.2,1029.5
			L116.2,1029.5z"/>
		<path d="M119.2,1040.3h-11.9v4.8h-3.2v-8.8h15.1V1040.3z"/>
	</g>
	<g>
		<path d="M116.4,1097.4c0.3-0.2,0.5-0.4,0.5-0.8c0-0.3-0.1-0.5-0.2-0.7c-0.2-0.2-0.4-0.3-0.8-0.4s-0.9-0.2-1.6-0.2
			c-0.7,0-1.5,0-2.5,0c-1,0-1.9,0-2.5,0s-1.2,0.1-1.6,0.2c-0.4,0.1-0.7,0.2-0.8,0.4c-0.2,0.2-0.2,0.4-0.2,0.7c0,0.2,0.1,0.4,0.2,0.6
			c0.1,0.2,0.3,0.3,0.6,0.4c0.3,0.1,0.7,0.1,1.1,0.2s1.1,0.1,1.8,0.1v3.8h-1.1c-1.1,0-1.9-0.1-2.6-0.4c-0.7-0.3-1.2-0.7-1.6-1.1
			s-0.6-1-0.8-1.6c-0.1-0.6-0.2-1.2-0.2-1.8c0-1.1,0.1-2,0.4-2.7c0.3-0.7,0.7-1.3,1.3-1.6c0.6-0.4,1.4-0.7,2.4-0.8
			c1-0.1,2.2-0.2,3.6-0.2c1.4,0,2.7,0.1,3.7,0.3c1,0.2,1.8,0.5,2.4,0.9c0.6,0.4,1.1,1,1.3,1.7s0.4,1.5,0.4,2.6
			c0,0.9-0.1,1.6-0.3,2.3s-0.5,1.1-1,1.5c-0.4,0.4-0.9,0.7-1.5,0.8c-0.6,0.2-1.2,0.3-2,0.3h-1v-3.8h0.8
			C115.5,1097.6,116.1,1097.5,116.4,1097.4z"/>
		<path d="M115.3,1102.8c1,0.2,1.8,0.5,2.4,0.9c0.6,0.4,1.1,1,1.4,1.7c0.3,0.7,0.4,1.5,0.4,2.5c0,1-0.1,1.8-0.4,2.5
			s-0.7,1.2-1.4,1.7c-0.6,0.4-1.4,0.7-2.4,0.9s-2.2,0.3-3.6,0.3s-2.6-0.1-3.6-0.3c-1-0.2-1.8-0.5-2.4-0.9c-0.6-0.4-1.1-1-1.3-1.7
			s-0.4-1.5-0.4-2.5c0-1,0.1-1.8,0.4-2.5c0.3-0.7,0.7-1.2,1.3-1.7c0.6-0.4,1.4-0.7,2.4-0.9c1-0.2,2.2-0.3,3.6-0.3
			S114.3,1102.6,115.3,1102.8z M109.2,1106.6c-0.7,0-1.2,0.1-1.6,0.2c-0.4,0.1-0.7,0.2-0.8,0.4c-0.2,0.2-0.2,0.4-0.2,0.7
			s0.1,0.5,0.2,0.7c0.2,0.2,0.4,0.3,0.8,0.4c0.4,0.1,0.9,0.2,1.6,0.2s1.5,0,2.5,0c1,0,1.9,0,2.5,0c0.7,0,1.2-0.1,1.6-0.2
			s0.7-0.2,0.8-0.4c0.2-0.2,0.2-0.4,0.2-0.7s-0.1-0.5-0.2-0.7c-0.2-0.2-0.4-0.3-0.8-0.4s-0.9-0.2-1.6-0.2c-0.7,0-1.5,0-2.5,0
			C110.7,1106.6,109.8,1106.6,109.2,1106.6z"/>
		<path d="M115.2,1120.6c0.5,0,0.8-0.1,1.2-0.3c0.3-0.2,0.5-0.5,0.5-0.8c0-0.4-0.1-0.7-0.4-0.9s-0.6-0.3-0.9-0.3
			c-0.5,0-0.9,0.2-1.2,0.5c-0.3,0.3-0.5,0.7-0.8,1.2c-0.2,0.5-0.4,1-0.6,1.5c-0.2,0.5-0.5,1.1-0.9,1.5c-0.4,0.5-0.8,0.9-1.4,1.2
			s-1.3,0.5-2.2,0.5c-1.6,0-2.8-0.5-3.5-1.4c-0.7-0.9-1.1-2.2-1.1-4c0-0.8,0.1-1.5,0.2-2.2s0.4-1.2,0.7-1.6c0.3-0.4,0.8-0.8,1.3-1
			c0.5-0.2,1.2-0.3,2-0.3h0.5v3.8h-0.4c-0.6,0-1.1,0.1-1.4,0.4c-0.3,0.2-0.4,0.5-0.4,0.9c0,0.4,0.1,0.7,0.4,0.9
			c0.3,0.2,0.6,0.3,1,0.3c0.5,0,0.9-0.2,1.2-0.5c0.3-0.3,0.5-0.7,0.7-1.1c0.2-0.5,0.4-1,0.6-1.5c0.2-0.5,0.5-1,0.8-1.5
			s0.8-0.8,1.3-1.1c0.5-0.3,1.3-0.5,2.2-0.5c1.5,0,2.7,0.4,3.5,1.2c0.8,0.8,1.2,2.1,1.2,3.7c0,1.7-0.4,3-1.1,3.7
			c-0.7,0.8-1.9,1.2-3.5,1.2v-3.7H115.2z"/>
		<path d="M119.2,1131.5l-8.9,1.6v0l8.9,1.6v5.6h-15.1v-3.7h11.2v0l-11.2-2.1v-2.8l11.2-2.1v0h-11.2v-3.7h15.1V1131.5z"/>
		<path d="M119.2,1151H116v-5h-2.6v4.7h-3.1v-4.7h-3v5.2h-3.2v-9.1h15.1V1151z"/>
		<path d="M115.9,1151.7h3.3v9.8h-3.3v-3h-11.8v-3.9h11.8V1151.7z"/>
		<path d="M119.2,1166.2h-15.1v-3.9h15.1V1166.2z"/>
		<path d="M116.4,1173.7c0.3-0.2,0.5-0.4,0.5-0.8c0-0.3-0.1-0.5-0.2-0.7c-0.2-0.2-0.4-0.3-0.8-0.4s-0.9-0.2-1.6-0.2
			c-0.7,0-1.5,0-2.5,0c-1,0-1.9,0-2.5,0s-1.2,0.1-1.6,0.2c-0.4,0.1-0.7,0.2-0.8,0.4c-0.2,0.2-0.2,0.4-0.2,0.7c0,0.2,0.1,0.4,0.2,0.6
			c0.1,0.2,0.3,0.3,0.6,0.4c0.3,0.1,0.7,0.1,1.1,0.2s1.1,0.1,1.8,0.1v3.8h-1.1c-1.1,0-1.9-0.1-2.6-0.4c-0.7-0.3-1.2-0.7-1.6-1.1
			s-0.6-1-0.8-1.6c-0.1-0.6-0.2-1.2-0.2-1.8c0-1.1,0.1-2,0.4-2.7c0.3-0.7,0.7-1.3,1.3-1.6c0.6-0.4,1.4-0.7,2.4-0.8
			c1-0.1,2.2-0.2,3.6-0.2c1.4,0,2.7,0.1,3.7,0.3c1,0.2,1.8,0.5,2.4,0.9c0.6,0.4,1.1,1,1.3,1.7s0.4,1.5,0.4,2.6
			c0,0.9-0.1,1.6-0.3,2.3s-0.5,1.1-1,1.5c-0.4,0.4-0.9,0.7-1.5,0.8c-0.6,0.2-1.2,0.3-2,0.3h-1v-3.8h0.8
			C115.5,1173.9,116.1,1173.9,116.4,1173.7z"/>
		<path d="M115.2,1185.2c0.5,0,0.8-0.1,1.2-0.3c0.3-0.2,0.5-0.5,0.5-0.8c0-0.4-0.1-0.7-0.4-0.9s-0.6-0.3-0.9-0.3
			c-0.5,0-0.9,0.2-1.2,0.5c-0.3,0.3-0.5,0.7-0.8,1.2c-0.2,0.5-0.4,1-0.6,1.5c-0.2,0.5-0.5,1.1-0.9,1.5c-0.4,0.5-0.8,0.9-1.4,1.2
			s-1.3,0.5-2.2,0.5c-1.6,0-2.8-0.5-3.5-1.4c-0.7-0.9-1.1-2.2-1.1-4c0-0.8,0.1-1.5,0.2-2.2s0.4-1.2,0.7-1.6c0.3-0.4,0.8-0.8,1.3-1
			c0.5-0.2,1.2-0.3,2-0.3h0.5v3.8h-0.4c-0.6,0-1.1,0.1-1.4,0.4c-0.3,0.2-0.4,0.5-0.4,0.9c0,0.4,0.1,0.7,0.4,0.9
			c0.3,0.2,0.6,0.3,1,0.3c0.5,0,0.9-0.2,1.2-0.5c0.3-0.3,0.5-0.7,0.7-1.1c0.2-0.5,0.4-1,0.6-1.5c0.2-0.5,0.5-1,0.8-1.5
			s0.8-0.8,1.3-1.1c0.5-0.3,1.3-0.5,2.2-0.5c1.5,0,2.7,0.4,3.5,1.2c0.8,0.8,1.2,2.1,1.2,3.7c0,1.7-0.4,3-1.1,3.7
			c-0.7,0.8-1.9,1.2-3.5,1.2v-3.7H115.2z"/>
	</g>
	<g>
		<path fill="#FFFFFF" d="M657.4,749.3c0,1.4-0.3,2.5-0.8,3.3c-0.5,0.8-1.2,1.4-2.1,1.8c-0.9,0.4-1.9,0.6-3,0.7
			c-1.1,0.1-2.3,0.1-3.6,0.1c-1.2,0-2.4,0-3.6-0.1c-1.1-0.1-2.1-0.3-3-0.7c-0.9-0.4-1.6-1-2.1-1.8s-0.8-1.9-0.8-3.3v-7.1h18.9V749.3
			z M642.1,748.1c0,0.5,0.1,0.9,0.2,1.1c0.1,0.3,0.4,0.5,0.8,0.6c0.4,0.1,1,0.2,1.8,0.3s1.8,0.1,3.1,0.1c1.3,0,2.3,0,3.1-0.1
			s1.4-0.1,1.8-0.3c0.4-0.2,0.7-0.4,0.8-0.6c0.1-0.3,0.2-0.7,0.2-1.1v-1h-11.8V748.1z"/>
		<path fill="#FFFFFF" d="M657.4,768.6h-4v-6.3h-3.2v5.9h-3.9v-5.9h-3.8v6.5h-4v-11.4h18.9V768.6z"/>
		<path fill="#FFFFFF" d="M657.4,775.5h-14.9v6.1h-4v-11h18.9V775.5z"/>
		<path fill="#FFFFFF" d="M657.4,787.6h-18.9v-4.9h18.9V787.6z"/>
	</g>
	<g>
		<path fill="#FFFFFF" d="M314.3,714.6V712h2.2c0,0.6,0,1,0.1,1.4c0.1,0.4,0.2,0.7,0.3,1c0.2,0.3,0.4,0.5,0.7,0.7
			c0.3,0.2,0.6,0.3,1,0.4v2.6h-13.7v-3.6H314.3z"/>
	</g>
	<g>
		<path fill="#FFFFFF" d="M315.9,667.1c0.6,0.1,1.1,0.3,1.5,0.7c0.4,0.3,0.7,0.8,0.9,1.4s0.3,1.3,0.3,2.3c0,0.9-0.1,1.6-0.3,2.2
			s-0.5,1-0.8,1.3c-0.3,0.3-0.7,0.6-1.2,0.7c-0.5,0.1-0.9,0.2-1.5,0.2c-0.9,0-1.7-0.2-2.3-0.5c-0.6-0.3-1.2-0.7-1.7-1.2l-2.1-2.1
			c-0.2-0.2-0.3-0.3-0.5-0.5s-0.4-0.3-0.6-0.4v4.7h-2.7v-9c1,0,1.9,0.1,2.7,0.4c0.9,0.3,1.7,0.8,2.5,1.6l2.4,2.4
			c0.3,0.3,0.7,0.6,1,0.7c0.3,0.1,0.7,0.2,1.2,0.2c0.6,0,1-0.1,1.2-0.3s0.3-0.4,0.3-0.7c0-0.1,0-0.3-0.1-0.4c0-0.1-0.1-0.2-0.3-0.3
			c-0.1-0.1-0.3-0.2-0.6-0.2c-0.2-0.1-0.6-0.1-0.9-0.1H314v-3.4C314.7,666.9,315.3,667,315.9,667.1z"/>
	</g>
	<g>
		<path fill="#FFFFFF" d="M317.6,621.7c0.7,0.7,1,1.8,1,3.2c0,0.8-0.1,1.5-0.3,2.1s-0.4,1-0.7,1.3c-0.3,0.3-0.7,0.6-1.2,0.7
			c-0.5,0.1-1,0.2-1.6,0.2c-0.3,0-0.6,0-0.8-0.1s-0.6-0.2-0.8-0.3s-0.5-0.3-0.7-0.6c-0.2-0.2-0.3-0.5-0.4-0.9h0
			c-0.2,0.8-0.5,1.4-1.1,1.7c-0.5,0.3-1.2,0.5-1.9,0.5c-1.6,0-2.7-0.4-3.3-1.1c-0.7-0.7-1-1.9-1-3.4c0-0.8,0.1-1.5,0.2-2
			c0.1-0.6,0.4-1,0.7-1.4c0.3-0.4,0.8-0.7,1.3-0.8c0.6-0.2,1.3-0.3,2.1-0.3v3.4c-0.4,0-0.7,0-1,0.1c-0.3,0-0.5,0.1-0.7,0.2
			c-0.3,0.2-0.5,0.4-0.5,0.8c0,0.2,0,0.4,0.1,0.5c0.1,0.1,0.2,0.2,0.3,0.3c0.2,0.1,0.4,0.1,0.7,0.1c0.3,0,0.6,0,1.1,0
			c0.7,0,1.1-0.1,1.4-0.3c0.2-0.2,0.3-0.5,0.3-1v-0.9h2.2v0.5c0,0.3,0,0.5,0.1,0.7c0.1,0.2,0.1,0.4,0.3,0.5c0.1,0.1,0.3,0.2,0.6,0.3
			c0.3,0.1,0.6,0.1,1,0.1c0.6,0,1-0.1,1.2-0.2c0.2-0.1,0.3-0.4,0.3-0.7c0-0.3-0.1-0.6-0.4-0.7c-0.3-0.1-0.8-0.2-1.5-0.2v-3.3
			C315.9,620.6,317,621,317.6,621.7z"/>
	</g>
	<g>
		<path fill="#FFFFFF" d="M318.4,578.3v3.9h-8.3v1.2h-2.6v-1.2h-2.6v-3.4h2.6V574h2.7L318.4,578.3z M314.6,579L314.6,579l-4.6-2.3
			v2.3H314.6z"/>
	</g>
	<g>
		<path fill="#FFFFFF" d="M318.4,537.8h-2.7v-5.2l-2.3-0.2c0.3,0.3,0.6,0.7,0.7,1.1c0.2,0.4,0.3,0.9,0.3,1.4c0,1.1-0.4,2-1.1,2.6
			c-0.7,0.6-1.8,0.9-3.3,0.9c-0.9,0-1.7-0.1-2.4-0.2c-0.7-0.1-1.2-0.4-1.7-0.7c-0.4-0.3-0.8-0.8-1-1.4c-0.2-0.6-0.3-1.3-0.3-2.1
			c0-1.6,0.3-2.7,1-3.4s1.6-1.1,2.9-1.1h0.4v3.4h-0.5c-0.6,0-1.1,0.1-1.3,0.3c-0.2,0.2-0.3,0.4-0.3,0.7c0,0.2,0,0.3,0.1,0.5
			c0.1,0.1,0.2,0.2,0.4,0.3c0.2,0.1,0.5,0.2,0.9,0.2c0.4,0,0.9,0.1,1.6,0.1c0.8,0,1.3-0.1,1.6-0.3s0.5-0.4,0.5-0.8
			c0-0.3-0.1-0.5-0.3-0.7s-0.5-0.3-0.9-0.3v-3.3l7.6,0.3V537.8z"/>
	</g>
	<g>
		<path fill="#FFFFFF" d="M316.1,488.4c0.2-0.1,0.3-0.4,0.3-0.7c0-0.3-0.1-0.5-0.3-0.7s-0.5-0.3-1-0.3h-2.2v0
			c0.3,0.2,0.6,0.4,0.8,0.9c0.2,0.4,0.3,0.9,0.3,1.4c0,0.5-0.1,0.9-0.2,1.3c-0.1,0.4-0.4,0.7-0.7,1c-0.3,0.3-0.7,0.5-1.3,0.7
			c-0.5,0.2-1.2,0.2-2,0.2c-0.9,0-1.7-0.1-2.4-0.3c-0.7-0.2-1.2-0.5-1.6-0.9c-0.4-0.4-0.7-0.9-0.9-1.4c-0.2-0.6-0.3-1.2-0.3-2
			c0-0.8,0.1-1.5,0.3-2.1c0.2-0.6,0.5-1.1,0.9-1.5c0.4-0.4,1-0.7,1.8-0.9s1.7-0.3,2.8-0.3h1.5c1.1,0,2,0.1,2.8,0.2
			c0.8,0.1,1.5,0.3,2.1,0.7s1,0.8,1.3,1.4s0.4,1.4,0.4,2.5c0,0.9-0.1,1.6-0.3,2.2s-0.5,1-0.8,1.3c-0.3,0.3-0.7,0.5-1.1,0.7
			c-0.4,0.1-0.9,0.2-1.3,0.2v-3.4C315.6,488.7,315.9,488.6,316.1,488.4z M307.4,486.9c-0.3,0.1-0.5,0.4-0.5,0.8
			c0,0.3,0.2,0.6,0.5,0.8s0.9,0.3,1.8,0.3c0.9,0,1.5-0.1,1.8-0.2c0.3-0.1,0.5-0.4,0.5-0.8c0-0.3-0.2-0.6-0.5-0.8s-0.9-0.3-1.8-0.3
			C308.3,486.7,307.7,486.8,307.4,486.9z"/>
	</g>
	<g>
		<path fill="#FFFFFF" d="M318.4,445.7h-2.7c-0.7-0.5-1.6-0.9-2.5-1.3c-0.9-0.4-1.8-0.8-2.7-1.1c-0.9-0.3-1.9-0.6-2.8-0.8
			c-0.9-0.2-1.9-0.3-2.7-0.4v-3.7c0.9,0.1,1.8,0.2,2.7,0.4s1.8,0.5,2.7,0.8c0.9,0.3,1.8,0.7,2.6,1.1c0.9,0.4,1.7,0.9,2.5,1.5v-5.5
			h2.9V445.7z"/>
	</g>
	<g>
		<path fill="#FFFFFF" d="M304.9,392.9c0.1-0.6,0.3-1.1,0.7-1.5s0.8-0.7,1.3-0.9c0.6-0.2,1.3-0.3,2.1-0.3c0.8,0,1.6,0.2,2.1,0.6
			c0.6,0.4,0.9,1,1,1.7h0c0.1-0.4,0.2-0.7,0.4-1c0.2-0.3,0.4-0.5,0.7-0.6c0.3-0.2,0.5-0.3,0.8-0.3c0.3-0.1,0.6-0.1,0.9-0.1
			c0.5,0,1,0.1,1.5,0.2c0.5,0.2,0.8,0.4,1.2,0.8c0.3,0.4,0.6,0.8,0.8,1.4c0.2,0.6,0.3,1.2,0.3,2c0,0.8-0.1,1.5-0.3,2
			c-0.2,0.6-0.4,1-0.8,1.4c-0.3,0.4-0.7,0.6-1.2,0.8c-0.5,0.2-0.9,0.2-1.5,0.2c-0.3,0-0.6,0-0.9-0.1c-0.3-0.1-0.6-0.2-0.8-0.3
			c-0.3-0.2-0.5-0.4-0.7-0.6c-0.2-0.3-0.3-0.6-0.4-1h0c-0.1,0.4-0.2,0.8-0.4,1.1c-0.2,0.3-0.4,0.5-0.7,0.7c-0.3,0.2-0.6,0.3-0.9,0.4
			c-0.3,0.1-0.7,0.1-1.1,0.1c-0.9,0-1.6-0.1-2.1-0.3c-0.6-0.2-1-0.5-1.3-0.9s-0.6-0.9-0.7-1.5c-0.1-0.6-0.2-1.2-0.2-2
			S304.8,393.5,304.9,392.9z M307.3,394.1c-0.3,0.2-0.4,0.4-0.4,0.8s0.1,0.6,0.4,0.8c0.3,0.2,0.8,0.3,1.6,0.3c0.8,0,1.3-0.1,1.6-0.3
			c0.3-0.2,0.4-0.4,0.4-0.8s-0.1-0.6-0.4-0.8c-0.3-0.2-0.8-0.3-1.6-0.3C308.1,393.8,307.6,393.9,307.3,394.1z M313.9,394
			c-0.2,0.1-0.4,0.1-0.5,0.2c-0.1,0.1-0.2,0.2-0.3,0.3c0,0.1-0.1,0.2-0.1,0.4c0,0.3,0.1,0.5,0.3,0.7c0.2,0.2,0.7,0.3,1.3,0.3
			c0.3,0,0.6,0,0.8-0.1c0.2-0.1,0.4-0.1,0.5-0.2c0.1-0.1,0.2-0.2,0.3-0.3c0-0.1,0.1-0.2,0.1-0.4c0-0.1,0-0.2-0.1-0.4
			c0-0.1-0.1-0.2-0.3-0.3c-0.1-0.1-0.3-0.2-0.5-0.2c-0.2-0.1-0.5-0.1-0.8-0.1S314.1,394,313.9,394z"/>
	</g>
	<g>
		<path fill="#FFFFFF" d="M307.2,349.5c-0.2,0.1-0.3,0.4-0.3,0.7c0,0.3,0.1,0.5,0.3,0.7c0.2,0.2,0.5,0.3,1,0.3h2.2v0
			c-0.3-0.2-0.6-0.4-0.8-0.9s-0.3-0.9-0.3-1.4c0-0.5,0.1-0.9,0.2-1.3s0.4-0.7,0.7-1c0.3-0.3,0.7-0.5,1.3-0.7c0.5-0.2,1.2-0.2,2-0.2
			c0.9,0,1.7,0.1,2.4,0.3c0.7,0.2,1.2,0.5,1.6,0.9s0.7,0.9,0.9,1.4c0.2,0.6,0.3,1.2,0.3,2c0,0.8-0.1,1.5-0.3,2.1
			c-0.2,0.6-0.5,1.1-1,1.5c-0.5,0.4-1.1,0.7-1.8,0.9c-0.7,0.2-1.7,0.3-2.8,0.3h-1.5c-1.1,0-2-0.1-2.8-0.2c-0.8-0.1-1.5-0.3-2.1-0.7
			s-1-0.8-1.3-1.4c-0.3-0.6-0.4-1.4-0.4-2.5c0-0.9,0.1-1.6,0.3-2.2c0.2-0.6,0.4-1,0.8-1.3c0.3-0.3,0.7-0.5,1.1-0.7
			c0.4-0.1,0.9-0.2,1.3-0.2v3.4C307.7,349.2,307.4,349.3,307.2,349.5z M312.4,349.4c-0.3,0.1-0.5,0.4-0.5,0.8c0,0.3,0.2,0.6,0.5,0.8
			s0.9,0.3,1.8,0.3c0.9,0,1.5-0.1,1.8-0.2c0.3-0.1,0.5-0.4,0.5-0.8c0-0.3-0.2-0.6-0.5-0.8s-0.9-0.3-1.8-0.3
			C313.3,349.2,312.7,349.2,312.4,349.4z"/>
	</g>
	<g id="jbeOgx_3_">
		<g>
			<path fill="#FFFAF3" d="M389.7,1063.3c0-3.9,0-7.7,0-11.6c0-0.9-0.3-1-1.1-0.9c-4.5,0.9-7.4,4-7.9,8.9c-0.5,4.3,0.4,8.2,3.5,11.4
				c0.4,0.4,0.3,0.7,0.1,1.1c-0.4,0.7-0.8,1.4-1.1,2.1c-0.3,0.7-0.6,0.6-1.1,0.2c-2.1-1.9-3.6-4.3-4.4-7c-1.1-3.9-1.3-7.8,0-11.7
				c1.8-5.3,5.5-8.4,11.1-9c5.4-0.6,9.9,1.2,13,5.9c2.1,3.2,2.5,6.8,2.1,10.5c-0.4,3.3-1.4,6.4-3.8,8.9c-2.7,2.8-6.1,3.9-9.9,3.9
				c-0.7,0-0.6-0.5-0.6-0.9C389.7,1071.2,389.7,1067.2,389.7,1063.3C389.7,1063.3,389.7,1063.3,389.7,1063.3z M393.1,1061.2
				c0,3.1,0,6.3,0,9.4c0,0.7,0.1,1,0.9,0.7c1.9-0.6,3.5-1.7,4.6-3.3c1.8-2.5,2.3-5.4,2-8.5c-0.4-4.1-2.3-7-6.3-8.4
				c-1.1-0.4-1.2-0.3-1.2,0.8C393.1,1055.1,393.1,1058.2,393.1,1061.2z"/>
			<path fill="#FFFAF3" d="M376.9,1027c0-3.1,0.5-6,2.1-8.7c2.3-4,6-5.8,10.4-6.1c7.9-0.7,13.2,4.6,14.3,11.7
				c0.7,4.2,0.2,8.2-2,11.8c-2.3,3.8-5.7,5.9-10.2,6.1c-5.1,0.2-9.5-1.3-12.4-5.8C377.5,1033.2,377,1030.1,376.9,1027z
				 M390.4,1016.1c-2.1,0-4.1,0.5-5.9,1.7c-5.1,3.5-5.1,11.9-2.3,15.9c2.9,4.1,9.2,5.3,13.7,2.5c3.5-2.2,4.7-5.5,4.7-9.4
				C400.7,1020.5,396.4,1016.1,390.4,1016.1z"/>
			<path fill="#FFF8F1" d="M391.3,1007.2c-3.6,0-7.3,0-10.9,0c-3.6-0.1-6.9-0.9-9.4-3.6c-2.3-2.4-3.2-5.3-3.4-8.5
				c-0.2-3.1,0.2-6.1,2-8.8c1.3-1.9,3-3.1,5.1-4c0.5-0.2,0.7,0,0.9,0.4c0.4,0.9,0.9,1.8,1.3,2.7c0.3,0.5,0.1,0.7-0.4,0.9
				c-1.8,0.8-3.3,1.9-4.3,3.7c-2.9,5.8,0.7,12.3,7.2,12.7c2.2,0.1,4.5,0.1,6.7,0.1c5.6,0,11.3,0,16.9,0c0.8,0,1.1,0.2,1.1,1
				c-0.1,0.8,0,1.7,0,2.5c0,0.7-0.3,0.8-0.9,0.8C399.2,1007.2,395.3,1007.2,391.3,1007.2C391.3,1007.2,391.3,1007.2,391.3,1007.2z"
				/>
			<path fill="#FFF5E7" d="M371.2,1044c0,0.9-0.1,1.9-0.6,2.8c-0.2,0.3-0.4,0.7-0.7,0.8c-0.3,0.1-0.6,0.6-0.9,0.2
				c-0.2-0.4-0.7-0.9-0.1-1.4c1.3-1.1,1.1-2.5,0.8-4c-0.1-0.4-0.3-0.7-0.8-0.7c-0.4,0-0.6,0.4-0.6,0.7c-0.2,0.9-0.3,1.8-0.5,2.7
				c-0.1,0.6-0.2,1.2-0.5,1.8c-0.8,1.6-2.8,1.7-3.8,0.3c-1.1-1.6-0.8-5.2,0.5-6.6c0.1-0.1,0.1-0.2,0.2-0.2c0.3-0.2,0.7-0.8,1-0.3
				c0.3,0.4,0.8,1,0.1,1.6c-1.3,1.2-1.2,2.6-0.8,4.2c0.1,0.4,0.3,0.8,0.8,0.8c0.5,0,0.7-0.4,0.8-0.8c0.2-0.9,0.3-1.8,0.5-2.7
				c0.1-0.6,0.2-1.3,0.5-1.9c0.4-0.7,1-1.2,1.9-1.1c0.9,0,1.5,0.6,1.9,1.3C371.2,1042.2,371.3,1043,371.2,1044z"/>
			<path fill="#FFF6E9" d="M367.1,1020.1c1.1,0,2.1,0,3.2,0c0.6,0,0.8,0.2,0.8,0.7c0,1.6,0,3.2,0,4.8c0,1.5-0.7,2.3-1.8,2.5
				c-1.3,0.3-2.2-0.2-2.8-1.5c-0.2-0.5-0.4-0.4-0.8-0.2c-0.7,0.5-1.3,1-2,1.5c-0.4,0.3-0.6,0.2-0.6-0.3c0-0.7,0-1.4,0.8-1.8
				c0.4-0.2,0.7-0.6,1.1-0.8c1.2-0.6,1.4-1.5,1.3-2.7c0-0.5-0.2-0.7-0.7-0.7c-0.6,0-1.1,0-1.7,0c-0.6,0-0.8-0.2-0.8-0.8
				c0-0.6,0.2-0.8,0.8-0.8C364.9,1020.1,366,1020.1,367.1,1020.1C367.1,1020.1,367.1,1020.1,367.1,1020.1z M367.5,1023.7
				C367.5,1023.7,367.5,1023.7,367.5,1023.7c0,0.6,0,1.1,0,1.7c0.1,0.7,0.3,1.2,1.1,1.2c0.8,0,1-0.6,1-1.2c0-0.9,0-1.9,0-2.8
				c0-0.7-0.2-0.9-0.9-0.9c-1.4,0-1.4,0-1.4,1.4C367.5,1023.3,367.5,1023.5,367.5,1023.7z"/>
			<path fill="#FFF6E8" d="M367.1,1030.8c1.1,0,2.1,0,3.2,0c0.6,0,0.8,0.2,0.8,0.7c0,1.9,0,3.8,0,5.7c0,0.6-0.2,0.7-0.8,0.7
				c-0.6,0-0.6-0.4-0.6-0.8c0-1.4,0-2.7,0-4.1c0-0.8-0.5-0.7-1-0.7c-0.5,0-0.9,0-0.9,0.7c0.1,1.1,0,2.2,0,3.4c0,0.5-0.1,0.8-0.7,0.8
				c-0.6,0-0.7-0.3-0.7-0.8c0-1.1,0-2.1,0-3.2c0.1-1.1-0.6-0.8-1.2-0.9c-0.7-0.1-0.9,0.2-0.9,0.9c0,1.3,0,2.7,0,4
				c0,0.5-0.1,0.8-0.7,0.8c-0.6,0-0.7-0.3-0.7-0.8c0-1.9,0-3.8,0-5.7c0-0.6,0.2-0.8,0.8-0.8C364.9,1030.8,366,1030.7,367.1,1030.8
				C367.1,1030.7,367.1,1030.8,367.1,1030.8z"/>
			<path fill="#FDF3E5" d="M367,1058.8c-1.1,0-2.1,0-3.2,0c-0.6,0-0.8-0.3-0.8-0.8c0-0.6,0.2-0.8,0.8-0.8c0.9,0,1.9,0.4,2.5-0.2
				c0.5-0.6,0.2-1.6,0.1-2.5c0-0.8,0.4-1.9-0.2-2.4c-0.5-0.5-1.6-0.2-2.4-0.2c-0.6,0-0.9-0.2-0.9-0.8c0-0.7,0.3-0.8,0.9-0.8
				c2.1,0,4.2,0,6.4,0c0.6,0,0.8,0.2,0.8,0.8c0,0.6-0.1,0.9-0.8,0.8c-0.2,0-0.4,0-0.7,0c-1.8,0-1.8,0-1.8,1.8c0,0.8,0,1.7,0,2.5
				c0,0.7,0.2,1,0.9,0.9c0.5,0,0.9,0,1.4,0c0.6-0.1,0.9,0.1,0.9,0.8c0,0.7-0.3,0.9-0.9,0.8c-0.3,0-0.7,0-1,0
				C368.4,1058.9,367.7,1058.8,367,1058.8C367,1058.8,367,1058.8,367,1058.8z"/>
			<path fill="#FFF9EC" d="M367.1,1010.7c1.1,0,2.1,0,3.2,0c0.5,0,0.8,0.1,0.8,0.7c0,2,0,4,0,6c0,0.5-0.2,0.7-0.7,0.7
				c-0.5,0-0.6-0.2-0.6-0.7c0-1.4,0-2.8,0-4.2c0-0.8-0.3-0.9-1-0.9c-0.8,0-0.9,0.3-0.9,1c0,1.1,0,2.2,0,3.4c0,0.5-0.1,0.7-0.6,0.7
				c-0.5,0-0.7-0.2-0.7-0.7c0-1.1,0-2.2,0-3.3c0.1-0.8-0.3-1.1-1-1c-0.6,0-1.2,0-1.8,0c-0.5,0-0.7-0.2-0.7-0.7c0-0.5,0-1,0.7-0.9
				C364.8,1010.7,366,1010.7,367.1,1010.7C367.1,1010.7,367.1,1010.7,367.1,1010.7z"/>
		</g>
	</g>
	<g>
		<path fill="#FFFFFF" d="M546.4,1152.7h-4v-6.3h-3.2v5.9h-3.9v-5.9h-3.8v6.5h-4v-11.4h18.9V1152.7z"/>
		<path fill="#FFFFFF" d="M546.4,1159.6h-14.9v6.1h-4v-11h18.9V1159.6z"/>
		<path fill="#FFFFFF" d="M546.4,1178.1h-4v-6.3h-3.2v5.9h-3.9v-5.9h-3.8v6.5h-4v-11.4h18.9V1178.1z"/>
		<path fill="#FFFFFF" d="M542.8,1187.4c0.4-0.2,0.6-0.6,0.6-1c0-0.4-0.1-0.7-0.3-0.9c-0.2-0.2-0.5-0.4-1-0.5
			c-0.5-0.1-1.2-0.2-2-0.2c-0.8,0-1.9-0.1-3.2-0.1c-1.3,0-2.3,0-3.2,0.1c-0.8,0-1.5,0.1-2,0.2c-0.5,0.1-0.8,0.3-1,0.5
			c-0.2,0.2-0.3,0.5-0.3,0.9c0,0.3,0.1,0.5,0.2,0.7c0.1,0.2,0.4,0.3,0.8,0.4c0.4,0.1,0.8,0.2,1.4,0.2c0.6,0,1.3,0.1,2.2,0.1v4.8
			h-1.4c-1.3,0-2.4-0.2-3.3-0.5s-1.5-0.8-2-1.4c-0.5-0.6-0.8-1.2-1-2c-0.2-0.8-0.3-1.5-0.3-2.3c0-1.4,0.2-2.5,0.5-3.4
			c0.3-0.9,0.9-1.6,1.7-2.1c0.8-0.5,1.8-0.8,3-1c1.2-0.2,2.7-0.3,4.5-0.3c1.8,0,3.3,0.1,4.6,0.3c1.3,0.2,2.3,0.6,3,1.1
			c0.8,0.5,1.3,1.2,1.7,2.1s0.5,1.9,0.5,3.2c0,1.1-0.1,2.1-0.4,2.8c-0.3,0.8-0.7,1.4-1.2,1.9c-0.5,0.5-1.1,0.8-1.9,1.1
			c-0.7,0.2-1.6,0.3-2.5,0.3h-1.2v-4.8h1.1C541.7,1187.7,542.5,1187.6,542.8,1187.4z"/>
		<path fill="#FFFFFF" d="M542.2,1193.2h4.2v12.3h-4.2v-3.7h-14.7v-4.9h14.7V1193.2z"/>
		<path fill="#FFFFFF" d="M546.4,1214.2c0,0.9-0.1,1.7-0.4,2.4c-0.2,0.7-0.6,1.2-1,1.6s-1,0.7-1.6,0.9c-0.6,0.2-1.3,0.3-2,0.3
			c-1.3,0-2.3-0.3-3.1-0.8c-0.8-0.5-1.3-1.3-1.4-2.5h-0.1c-0.1,1.2-0.5,2-1.2,2.4c-0.7,0.4-1.7,0.7-3,0.7H531c-0.2,0-0.5,0-0.8,0
			c-0.3,0-0.5,0-0.8,0c-0.2,0-0.5,0-0.6,0.1c-0.2,0-0.3,0.1-0.4,0.1c-0.1,0.1-0.2,0.1-0.3,0.2c-0.1,0.1-0.2,0.2-0.3,0.3h-0.3v-5.2
			c0.2-0.1,0.5-0.2,0.9-0.3s0.7-0.1,1-0.1c0.3,0,0.7,0,1-0.1s0.6,0,0.8,0h1.3c0.5,0,1,0,1.3-0.1c0.4-0.1,0.6-0.1,0.8-0.3
			s0.3-0.3,0.4-0.5c0.1-0.2,0.1-0.5,0.1-0.8v-1.3h-7.6v-4.9h18.9V1214.2z M538.4,1212.4c0,0.7,0.2,1.2,0.6,1.6
			c0.4,0.3,1,0.5,1.6,0.5c0.8,0,1.4-0.2,1.7-0.5s0.5-0.9,0.5-1.6v-1h-4.4V1212.4z"/>
		<path fill="#FFFFFF" d="M541.5,1221.5c1.2,0.2,2.3,0.6,3,1.1s1.4,1.2,1.7,2.1s0.5,1.9,0.5,3.2c0,1.2-0.2,2.3-0.5,3.2
			s-0.9,1.6-1.7,2.1s-1.8,0.9-3,1.1c-1.2,0.2-2.7,0.3-4.5,0.3c-1.8,0-3.3-0.1-4.5-0.3c-1.2-0.2-2.3-0.6-3-1.1s-1.3-1.2-1.7-2.1
			c-0.3-0.9-0.5-1.9-0.5-3.2c0-1.3,0.2-2.3,0.5-3.2c0.3-0.9,0.9-1.6,1.7-2.1s1.8-0.9,3-1.1c1.2-0.2,2.7-0.3,4.5-0.3
			C538.7,1221.2,540.2,1221.3,541.5,1221.5z M533.8,1226.3c-0.8,0-1.5,0.1-2,0.2c-0.5,0.1-0.8,0.3-1,0.5c-0.2,0.2-0.3,0.5-0.3,0.9
			c0,0.4,0.1,0.7,0.3,0.9c0.2,0.2,0.5,0.4,1,0.5s1.2,0.2,2,0.2s1.9,0.1,3.2,0.1c1.3,0,2.3,0,3.2-0.1c0.8,0,1.5-0.1,2-0.2
			c0.5-0.1,0.8-0.3,1-0.5c0.2-0.2,0.3-0.5,0.3-0.9c0-0.4-0.1-0.7-0.3-0.9c-0.2-0.2-0.5-0.4-1-0.5c-0.5-0.1-1.2-0.2-2-0.2
			c-0.8,0-1.9-0.1-3.2-0.1C535.7,1226.2,534.6,1226.3,533.8,1226.3z"/>
		<path fill="#FFFFFF" d="M546.4,1241.9l-11.6,3.2v0.1h11.6v4.6h-18.9v-5.4l11.7-3.3v-0.1h-11.7v-4.6h18.9V1241.9z"/>
		<path fill="#FFFFFF" d="M546.4,1256.8h-18.9v-4.9h18.9V1256.8z"/>
		<path fill="#FFFFFF" d="M542.8,1266.1c0.4-0.2,0.6-0.6,0.6-1c0-0.4-0.1-0.7-0.3-0.9c-0.2-0.2-0.5-0.4-1-0.5
			c-0.5-0.1-1.2-0.2-2-0.2c-0.8,0-1.9-0.1-3.2-0.1c-1.3,0-2.3,0-3.2,0.1c-0.8,0-1.5,0.1-2,0.2c-0.5,0.1-0.8,0.3-1,0.5
			c-0.2,0.2-0.3,0.5-0.3,0.9c0,0.3,0.1,0.5,0.2,0.7c0.1,0.2,0.4,0.3,0.8,0.4c0.4,0.1,0.8,0.2,1.4,0.2c0.6,0,1.3,0.1,2.2,0.1v4.8
			h-1.4c-1.3,0-2.4-0.2-3.3-0.5s-1.5-0.8-2-1.4c-0.5-0.6-0.8-1.2-1-2c-0.2-0.8-0.3-1.5-0.3-2.3c0-1.4,0.2-2.5,0.5-3.4
			c0.3-0.9,0.9-1.6,1.7-2.1c0.8-0.5,1.8-0.8,3-1c1.2-0.2,2.7-0.3,4.5-0.3c1.8,0,3.3,0.1,4.6,0.3c1.3,0.2,2.3,0.6,3,1.1
			c0.8,0.5,1.3,1.2,1.7,2.1s0.5,1.9,0.5,3.2c0,1.1-0.1,2.1-0.4,2.8c-0.3,0.8-0.7,1.4-1.2,1.9c-0.5,0.5-1.1,0.8-1.9,1.1
			c-0.7,0.2-1.6,0.3-2.5,0.3h-1.2v-4.8h1.1C541.7,1266.5,542.5,1266.4,542.8,1266.1z"/>
		<path fill="#FFFFFF" d="M541.4,1280.5c0.6,0,1-0.1,1.4-0.3c0.4-0.2,0.6-0.6,0.6-1.1c0-0.5-0.2-0.9-0.5-1.2s-0.7-0.4-1.1-0.4
			c-0.6,0-1.1,0.2-1.5,0.6s-0.7,0.9-0.9,1.5c-0.3,0.6-0.5,1.2-0.8,1.9c-0.3,0.7-0.6,1.3-1.1,1.9c-0.4,0.6-1,1.1-1.7,1.5
			c-0.7,0.4-1.6,0.6-2.8,0.6c-2,0-3.5-0.6-4.4-1.7s-1.4-2.8-1.4-5c0-1,0.1-1.9,0.3-2.7c0.2-0.8,0.5-1.4,0.9-2c0.4-0.5,1-0.9,1.6-1.2
			c0.7-0.3,1.5-0.4,2.5-0.4h0.7v4.8h-0.4c-0.8,0-1.4,0.1-1.7,0.4c-0.3,0.3-0.5,0.7-0.5,1.2c0,0.5,0.2,0.9,0.5,1.2
			c0.4,0.3,0.8,0.4,1.3,0.4c0.6,0,1.1-0.2,1.5-0.6c0.4-0.4,0.7-0.9,0.9-1.4c0.3-0.6,0.5-1.2,0.8-1.9s0.6-1.3,1-1.9s1-1,1.7-1.4
			c0.7-0.4,1.6-0.6,2.7-0.6c1.9,0,3.4,0.5,4.4,1.5c1,1,1.5,2.6,1.5,4.7c0,2.1-0.5,3.7-1.4,4.7s-2.4,1.4-4.4,1.4v-4.6H541.4z"/>
	</g>
</g>
<g id="overlay" display="none">
	<rect display="inline" width="750" height="1334"/>
</g>
<g id="highlight" display="none">
</g>
<g id="cutouts" display="none">
</g>
</svg>
